%TF.GenerationSoftware,KiCad,Pcbnew,6.0.10-86aedd382b~118~ubuntu22.04.1*%
%TF.CreationDate,2023-01-11T10:16:45+01:00*%
%TF.ProjectId,nuc-compute-cluster-environment-sensor,6e75632d-636f-46d7-9075-74652d636c75,rev?*%
%TF.SameCoordinates,Original*%
%TF.FileFunction,Paste,Bot*%
%TF.FilePolarity,Positive*%
%FSLAX46Y46*%
G04 Gerber Fmt 4.6, Leading zero omitted, Abs format (unit mm)*
G04 Created by KiCad (PCBNEW 6.0.10-86aedd382b~118~ubuntu22.04.1) date 2023-01-11 10:16:45 commit a17aeb8*
%MOMM*%
%LPD*%
G01*
G04 APERTURE LIST*
%TA.AperFunction,Profile*%
%ADD10C,0.100000*%
%TD*%
%ADD11R,1.550000X0.600000*%
%ADD12R,1.800000X1.200000*%
%ADD13R,2.500000X5.100000*%
G04 APERTURE END LIST*
D10*
X50000000Y18350000D02*
X50000000Y26500000D01*
X48950000Y18350000D02*
G75*
G03*
X48950000Y16350000I0J-1000000D01*
G01*
X44950000Y16350000D02*
G75*
G03*
X44950000Y18350000I0J1000000D01*
G01*
X50000000Y16350000D02*
X50000000Y0D01*
X39950000Y26500000D02*
X50000000Y26500000D01*
X0Y26500000D02*
X0Y0D01*
X48950000Y16350000D02*
X50000000Y16350000D01*
X37950000Y26500000D02*
X0Y26500000D01*
X37948194Y17351594D02*
G75*
G03*
X38948209Y16351594I1000006J6D01*
G01*
X39950000Y18350000D02*
X44950000Y18350000D01*
X39950000Y18350000D02*
X39950000Y21550000D01*
X37950000Y25550000D02*
X37950000Y26500000D01*
X37950000Y21550000D02*
X37948209Y17351594D01*
X39950000Y21550000D02*
G75*
G03*
X37950000Y21550000I-1000000J0D01*
G01*
X48950000Y18350000D02*
X50000000Y18350000D01*
X39950000Y25550000D02*
X39950000Y26500000D01*
X37950000Y25550000D02*
G75*
G03*
X39950000Y25550000I1000000J0D01*
G01*
X38948209Y16351594D02*
X44950000Y16350000D01*
X0Y0D02*
X50000000Y0D01*
D11*
%TO.C,J3*%
X44800000Y23950000D03*
X44800000Y22950000D03*
X44800000Y21950000D03*
X44800000Y20950000D03*
D12*
X48675000Y25250000D03*
X48675000Y19650000D03*
%TD*%
D13*
%TO.C,BAT1*%
X8750000Y7050000D03*
X24050000Y7050000D03*
%TD*%
M02*
