%TF.GenerationSoftware,KiCad,Pcbnew,6.0.10-86aedd382b~118~ubuntu22.04.1*%
%TF.CreationDate,2023-01-11T10:16:45+01:00*%
%TF.ProjectId,nuc-compute-cluster-environment-sensor,6e75632d-636f-46d7-9075-74652d636c75,rev?*%
%TF.SameCoordinates,Original*%
%TF.FileFunction,AssemblyDrawing,Bot*%
%FSLAX46Y46*%
G04 Gerber Fmt 4.6, Leading zero omitted, Abs format (unit mm)*
G04 Created by KiCad (PCBNEW 6.0.10-86aedd382b~118~ubuntu22.04.1) date 2023-01-11 10:16:45 commit a17aeb8*
%MOMM*%
%LPD*%
G01*
G04 APERTURE LIST*
%TA.AperFunction,Profile*%
%ADD10C,0.100000*%
%TD*%
%ADD11C,0.150000*%
%ADD12C,0.127000*%
%ADD13C,0.100000*%
%ADD14C,0.200000*%
%ADD15C,0.050000*%
G04 APERTURE END LIST*
D10*
X50000000Y18350000D02*
X50000000Y26500000D01*
X48950000Y18350000D02*
G75*
G03*
X48950000Y16350000I0J-1000000D01*
G01*
X44950000Y16350000D02*
G75*
G03*
X44950000Y18350000I0J1000000D01*
G01*
X50000000Y16350000D02*
X50000000Y0D01*
X39950000Y26500000D02*
X50000000Y26500000D01*
X0Y26500000D02*
X0Y0D01*
X48950000Y16350000D02*
X50000000Y16350000D01*
X37950000Y26500000D02*
X0Y26500000D01*
X37948194Y17351594D02*
G75*
G03*
X38948209Y16351594I1000006J6D01*
G01*
X39950000Y18350000D02*
X44950000Y18350000D01*
X39950000Y18350000D02*
X39950000Y21550000D01*
X37950000Y25550000D02*
X37950000Y26500000D01*
X37950000Y21550000D02*
X37948209Y17351594D01*
X39950000Y21550000D02*
G75*
G03*
X37950000Y21550000I-1000000J0D01*
G01*
X48950000Y18350000D02*
X50000000Y18350000D01*
X39950000Y25550000D02*
X39950000Y26500000D01*
X37950000Y25550000D02*
G75*
G03*
X39950000Y25550000I1000000J0D01*
G01*
X38948209Y16351594D02*
X44950000Y16350000D01*
X0Y0D02*
X50000000Y0D01*
D11*
%TO.C,J3*%
X50969761Y29338572D02*
X51017380Y29195715D01*
X51017380Y28957620D01*
X50969761Y28862381D01*
X50922142Y28814762D01*
X50826904Y28767143D01*
X50731666Y28767143D01*
X50636428Y28814762D01*
X50588809Y28862381D01*
X50541190Y28957620D01*
X50493571Y29148096D01*
X50445952Y29243334D01*
X50398333Y29290953D01*
X50303095Y29338572D01*
X50207857Y29338572D01*
X50112619Y29290953D01*
X50065000Y29243334D01*
X50017380Y29148096D01*
X50017380Y28910000D01*
X50065000Y28767143D01*
X51017380Y28338572D02*
X50017380Y28338572D01*
X50731666Y28005239D01*
X50017380Y27671905D01*
X51017380Y27671905D01*
X50017380Y27005239D02*
X50017380Y26910000D01*
X50065000Y26814762D01*
X50112619Y26767143D01*
X50207857Y26719524D01*
X50398333Y26671905D01*
X50636428Y26671905D01*
X50826904Y26719524D01*
X50922142Y26767143D01*
X50969761Y26814762D01*
X51017380Y26910000D01*
X51017380Y27005239D01*
X50969761Y27100477D01*
X50922142Y27148096D01*
X50826904Y27195715D01*
X50636428Y27243334D01*
X50398333Y27243334D01*
X50207857Y27195715D01*
X50112619Y27148096D01*
X50065000Y27100477D01*
X50017380Y27005239D01*
X50350714Y25814762D02*
X51017380Y25814762D01*
X49969761Y26052858D02*
X50684047Y26290953D01*
X50684047Y25671905D01*
X50493571Y24957620D02*
X50541190Y24814762D01*
X50588809Y24767143D01*
X50684047Y24719524D01*
X50826904Y24719524D01*
X50922142Y24767143D01*
X50969761Y24814762D01*
X51017380Y24910000D01*
X51017380Y25290953D01*
X50017380Y25290953D01*
X50017380Y24957620D01*
X50065000Y24862381D01*
X50112619Y24814762D01*
X50207857Y24767143D01*
X50303095Y24767143D01*
X50398333Y24814762D01*
X50445952Y24862381D01*
X50493571Y24957620D01*
X50493571Y25290953D01*
X50636428Y24290953D02*
X50636428Y23529048D01*
X50969761Y23100477D02*
X51017380Y22957620D01*
X51017380Y22719524D01*
X50969761Y22624286D01*
X50922142Y22576667D01*
X50826904Y22529048D01*
X50731666Y22529048D01*
X50636428Y22576667D01*
X50588809Y22624286D01*
X50541190Y22719524D01*
X50493571Y22910000D01*
X50445952Y23005239D01*
X50398333Y23052858D01*
X50303095Y23100477D01*
X50207857Y23100477D01*
X50112619Y23052858D01*
X50065000Y23005239D01*
X50017380Y22910000D01*
X50017380Y22671905D01*
X50065000Y22529048D01*
X51017380Y21529048D02*
X50541190Y21862381D01*
X51017380Y22100477D02*
X50017380Y22100477D01*
X50017380Y21719524D01*
X50065000Y21624286D01*
X50112619Y21576667D01*
X50207857Y21529048D01*
X50350714Y21529048D01*
X50445952Y21576667D01*
X50493571Y21624286D01*
X50541190Y21719524D01*
X50541190Y22100477D01*
X50969761Y21148096D02*
X51017380Y21005239D01*
X51017380Y20767143D01*
X50969761Y20671905D01*
X50922142Y20624286D01*
X50826904Y20576667D01*
X50731666Y20576667D01*
X50636428Y20624286D01*
X50588809Y20671905D01*
X50541190Y20767143D01*
X50493571Y20957620D01*
X50445952Y21052858D01*
X50398333Y21100477D01*
X50303095Y21148096D01*
X50207857Y21148096D01*
X50112619Y21100477D01*
X50065000Y21052858D01*
X50017380Y20957620D01*
X50017380Y20719524D01*
X50065000Y20576667D01*
X50969761Y20195715D02*
X51017380Y20052858D01*
X51017380Y19814762D01*
X50969761Y19719524D01*
X50922142Y19671905D01*
X50826904Y19624286D01*
X50731666Y19624286D01*
X50636428Y19671905D01*
X50588809Y19719524D01*
X50541190Y19814762D01*
X50493571Y20005239D01*
X50445952Y20100477D01*
X50398333Y20148096D01*
X50303095Y20195715D01*
X50207857Y20195715D01*
X50112619Y20148096D01*
X50065000Y20100477D01*
X50017380Y20005239D01*
X50017380Y19767143D01*
X50065000Y19624286D01*
X50636428Y19195715D02*
X50636428Y18433810D01*
X50017380Y18100477D02*
X50017380Y17529048D01*
X51017380Y17814762D02*
X50017380Y17814762D01*
X50493571Y16862381D02*
X50541190Y16719524D01*
X50588809Y16671905D01*
X50684047Y16624286D01*
X50826904Y16624286D01*
X50922142Y16671905D01*
X50969761Y16719524D01*
X51017380Y16814762D01*
X51017380Y17195715D01*
X50017380Y17195715D01*
X50017380Y16862381D01*
X50065000Y16767143D01*
X50112619Y16719524D01*
X50207857Y16671905D01*
X50303095Y16671905D01*
X50398333Y16719524D01*
X50445952Y16767143D01*
X50493571Y16862381D01*
X50493571Y17195715D01*
X50636428Y16195715D02*
X50636428Y15433810D01*
X51017380Y14481429D02*
X51017380Y14957620D01*
X50017380Y14957620D01*
X50493571Y13814762D02*
X50493571Y14148096D01*
X51017380Y14148096D02*
X50017380Y14148096D01*
X50017380Y13671905D01*
X50636428Y13290953D02*
X50636428Y12529048D01*
X50969761Y12100477D02*
X51017380Y11957620D01*
X51017380Y11719524D01*
X50969761Y11624286D01*
X50922142Y11576667D01*
X50826904Y11529048D01*
X50731666Y11529048D01*
X50636428Y11576667D01*
X50588809Y11624286D01*
X50541190Y11719524D01*
X50493571Y11910000D01*
X50445952Y12005239D01*
X50398333Y12052858D01*
X50303095Y12100477D01*
X50207857Y12100477D01*
X50112619Y12052858D01*
X50065000Y12005239D01*
X50017380Y11910000D01*
X50017380Y11671905D01*
X50065000Y11529048D01*
X51017380Y11100477D02*
X50017380Y11100477D01*
X51017380Y10529048D01*
X50017380Y10529048D01*
X46752380Y22783334D02*
X47466666Y22783334D01*
X47609523Y22830953D01*
X47704761Y22926191D01*
X47752380Y23069048D01*
X47752380Y23164286D01*
X46752380Y22402381D02*
X46752380Y21783334D01*
X47133333Y22116667D01*
X47133333Y21973810D01*
X47180952Y21878572D01*
X47228571Y21830953D01*
X47323809Y21783334D01*
X47561904Y21783334D01*
X47657142Y21830953D01*
X47704761Y21878572D01*
X47752380Y21973810D01*
X47752380Y22259524D01*
X47704761Y22354762D01*
X47657142Y22402381D01*
%TO.C,BAT1*%
X15275333Y511000D02*
X15075333Y444334D01*
X15008666Y377667D01*
X14942000Y244334D01*
X14942000Y44334D01*
X15008666Y-89000D01*
X15075333Y-155666D01*
X15208666Y-222333D01*
X15742000Y-222333D01*
X15742000Y1177667D01*
X15275333Y1177667D01*
X15142000Y1111000D01*
X15075333Y1044334D01*
X15008666Y911000D01*
X15008666Y777667D01*
X15075333Y644334D01*
X15142000Y577667D01*
X15275333Y511000D01*
X15742000Y511000D01*
X14408666Y177667D02*
X13742000Y177667D01*
X14542000Y-222333D02*
X14075333Y1177667D01*
X13608666Y-222333D01*
X13342000Y1177667D02*
X12542000Y1177667D01*
X12942000Y-222333D02*
X12942000Y1177667D01*
X12075333Y311000D02*
X11008666Y311000D01*
X10342000Y-222333D02*
X10342000Y1177667D01*
X10342000Y511000D02*
X9542000Y511000D01*
X9542000Y-222333D02*
X9542000Y1177667D01*
X8208666Y-222333D02*
X8875333Y-222333D01*
X8875333Y1177667D01*
X7742000Y-222333D02*
X7742000Y1177667D01*
X7408666Y1177667D01*
X7208666Y1111000D01*
X7075333Y977667D01*
X7008666Y844334D01*
X6942000Y577667D01*
X6942000Y377667D01*
X7008666Y111000D01*
X7075333Y-22333D01*
X7208666Y-155666D01*
X7408666Y-222333D01*
X7742000Y-222333D01*
X6342000Y311000D02*
X5275333Y311000D01*
X4342000Y1177667D02*
X4208666Y1177667D01*
X4075333Y1111000D01*
X4008666Y1044334D01*
X3942000Y911000D01*
X3875333Y644334D01*
X3875333Y311000D01*
X3942000Y44334D01*
X4008666Y-89000D01*
X4075333Y-155666D01*
X4208666Y-222333D01*
X4342000Y-222333D01*
X4475333Y-155666D01*
X4542000Y-89000D01*
X4608666Y44334D01*
X4675333Y311000D01*
X4675333Y644334D01*
X4608666Y911000D01*
X4542000Y1044334D01*
X4475333Y1111000D01*
X4342000Y1177667D01*
X2542000Y-222333D02*
X3342000Y-222333D01*
X2942000Y-222333D02*
X2942000Y1177667D01*
X3075333Y977667D01*
X3208666Y844334D01*
X3342000Y777667D01*
X2008666Y1044334D02*
X1942000Y1111000D01*
X1808666Y1177667D01*
X1475333Y1177667D01*
X1342000Y1111000D01*
X1275333Y1044334D01*
X1208666Y911000D01*
X1208666Y777667D01*
X1275333Y577667D01*
X2075333Y-222333D01*
X1208666Y-222333D01*
X608666Y311000D02*
X-458000Y311000D01*
X-1058000Y-155666D02*
X-1258000Y-222333D01*
X-1591334Y-222333D01*
X-1724667Y-155666D01*
X-1791334Y-89000D01*
X-1858000Y44334D01*
X-1858000Y177667D01*
X-1791334Y311000D01*
X-1724667Y377667D01*
X-1591334Y444334D01*
X-1324667Y511000D01*
X-1191334Y577667D01*
X-1124667Y644334D01*
X-1058000Y777667D01*
X-1058000Y911000D01*
X-1124667Y1044334D01*
X-1191334Y1111000D01*
X-1324667Y1177667D01*
X-1658000Y1177667D01*
X-1858000Y1111000D01*
X-2458000Y-222333D02*
X-2458000Y1177667D01*
X-2924667Y177667D01*
X-3391334Y1177667D01*
X-3391334Y-222333D01*
X-3858000Y1177667D02*
X-4658000Y1177667D01*
X-4258000Y-222333D02*
X-4258000Y1177667D01*
X-5124667Y311000D02*
X-6191334Y311000D01*
X-6658000Y1177667D02*
X-7458000Y1177667D01*
X-7058000Y-222333D02*
X-7058000Y1177667D01*
X-8724667Y-222333D02*
X-8258000Y444334D01*
X-7924667Y-222333D02*
X-7924667Y1177667D01*
X-8458000Y1177667D01*
X-8591334Y1111000D01*
X-8658000Y1044334D01*
X-8724667Y911000D01*
X-8724667Y711000D01*
X-8658000Y577667D01*
X-8591334Y511000D01*
X-8458000Y444334D01*
X-7924667Y444334D01*
D12*
%TO.C,J3*%
X49375000Y25950000D02*
X45125000Y25950000D01*
X45125000Y18950000D02*
X49375000Y18950000D01*
D13*
X49375000Y25950000D02*
X49375000Y18950000D01*
X45125000Y18950000D02*
X45125000Y25950000D01*
D14*
X44400000Y24950000D02*
G75*
G03*
X44400000Y24950000I-100000J0D01*
G01*
D12*
%TO.C,BAT1*%
X23150000Y2050000D02*
X23150000Y11550000D01*
X21900000Y2050000D02*
X23150000Y2050000D01*
X23150000Y11550000D02*
X9650000Y11550000D01*
X9650000Y2050000D02*
X10900000Y2050000D01*
X9650000Y11550000D02*
X9650000Y2050000D01*
X16400000Y4000000D02*
G75*
G03*
X10900000Y2050000I-4J-8731400D01*
G01*
X21900000Y2050000D02*
G75*
G03*
X16400000Y4000000I-5499996J-6781400D01*
G01*
D15*
X22650000Y7000000D02*
G75*
G03*
X22650000Y7000000I-6250000J0D01*
G01*
%TD*%
M02*
