%TF.GenerationSoftware,KiCad,Pcbnew,6.0.10-86aedd382b~118~ubuntu22.04.1*%
%TF.CreationDate,2023-01-11T10:16:45+01:00*%
%TF.ProjectId,nuc-compute-cluster-environment-sensor,6e75632d-636f-46d7-9075-74652d636c75,rev?*%
%TF.SameCoordinates,Original*%
%TF.FileFunction,Soldermask,Top*%
%TF.FilePolarity,Negative*%
%FSLAX46Y46*%
G04 Gerber Fmt 4.6, Leading zero omitted, Abs format (unit mm)*
G04 Created by KiCad (PCBNEW 6.0.10-86aedd382b~118~ubuntu22.04.1) date 2023-01-11 10:16:45 commit a17aeb8*
%MOMM*%
%LPD*%
G01*
G04 APERTURE LIST*
G04 Aperture macros list*
%AMRoundRect*
0 Rectangle with rounded corners*
0 $1 Rounding radius*
0 $2 $3 $4 $5 $6 $7 $8 $9 X,Y pos of 4 corners*
0 Add a 4 corners polygon primitive as box body*
4,1,4,$2,$3,$4,$5,$6,$7,$8,$9,$2,$3,0*
0 Add four circle primitives for the rounded corners*
1,1,$1+$1,$2,$3*
1,1,$1+$1,$4,$5*
1,1,$1+$1,$6,$7*
1,1,$1+$1,$8,$9*
0 Add four rect primitives between the rounded corners*
20,1,$1+$1,$2,$3,$4,$5,0*
20,1,$1+$1,$4,$5,$6,$7,0*
20,1,$1+$1,$6,$7,$8,$9,0*
20,1,$1+$1,$8,$9,$2,$3,0*%
G04 Aperture macros list end*
%TA.AperFunction,Profile*%
%ADD10C,0.100000*%
%TD*%
%ADD11R,1.900000X1.100000*%
%ADD12R,2.000000X0.600000*%
%ADD13RoundRect,0.062500X0.062500X-0.117500X0.062500X0.117500X-0.062500X0.117500X-0.062500X-0.117500X0*%
%ADD14RoundRect,0.147500X-0.147500X-0.172500X0.147500X-0.172500X0.147500X0.172500X-0.147500X0.172500X0*%
%ADD15C,0.650000*%
%ADD16R,1.150000X0.600000*%
%ADD17R,1.150000X0.300000*%
%ADD18O,2.100000X1.050000*%
%ADD19O,2.000000X1.000000*%
%ADD20RoundRect,0.147500X0.147500X0.172500X-0.147500X0.172500X-0.147500X-0.172500X0.147500X-0.172500X0*%
%ADD21C,1.000000*%
%ADD22RoundRect,0.062500X-0.375000X-0.062500X0.375000X-0.062500X0.375000X0.062500X-0.375000X0.062500X0*%
%ADD23RoundRect,0.062500X-0.062500X-0.375000X0.062500X-0.375000X0.062500X0.375000X-0.062500X0.375000X0*%
%ADD24R,5.900000X5.900000*%
%ADD25R,1.550000X0.600000*%
%ADD26R,1.800000X1.200000*%
%ADD27C,5.400000*%
%ADD28RoundRect,0.050000X0.150000X-0.150000X0.150000X0.150000X-0.150000X0.150000X-0.150000X-0.150000X0*%
%ADD29RoundRect,0.147500X0.172500X-0.147500X0.172500X0.147500X-0.172500X0.147500X-0.172500X-0.147500X0*%
%ADD30RoundRect,0.147500X-0.172500X0.147500X-0.172500X-0.147500X0.172500X-0.147500X0.172500X0.147500X0*%
%ADD31R,0.500000X0.350000*%
%ADD32RoundRect,0.120000X0.280000X-0.180000X0.280000X0.180000X-0.280000X0.180000X-0.280000X-0.180000X0*%
%ADD33RoundRect,0.075000X0.175000X0.075000X-0.175000X0.075000X-0.175000X-0.075000X0.175000X-0.075000X0*%
%ADD34R,1.200000X1.800000*%
%ADD35RoundRect,0.120000X0.180000X0.280000X-0.180000X0.280000X-0.180000X-0.280000X0.180000X-0.280000X0*%
%ADD36RoundRect,0.070000X0.650000X0.300000X-0.650000X0.300000X-0.650000X-0.300000X0.650000X-0.300000X0*%
%ADD37R,0.800000X0.800000*%
%ADD38RoundRect,0.050000X-0.150000X0.150000X-0.150000X-0.150000X0.150000X-0.150000X0.150000X0.150000X0*%
%ADD39RoundRect,0.062500X0.117500X0.062500X-0.117500X0.062500X-0.117500X-0.062500X0.117500X-0.062500X0*%
%ADD40RoundRect,0.062500X-0.062500X0.117500X-0.062500X-0.117500X0.062500X-0.117500X0.062500X0.117500X0*%
%ADD41R,1.200000X0.300000*%
%ADD42R,0.300000X1.200000*%
G04 APERTURE END LIST*
D10*
X50000000Y18350000D02*
X50000000Y26500000D01*
X48950000Y18350000D02*
G75*
G03*
X48950000Y16350000I0J-1000000D01*
G01*
X44950000Y16350000D02*
G75*
G03*
X44950000Y18350000I0J1000000D01*
G01*
X50000000Y16350000D02*
X50000000Y0D01*
X39950000Y26500000D02*
X50000000Y26500000D01*
X0Y26500000D02*
X0Y0D01*
X48950000Y16350000D02*
X50000000Y16350000D01*
X37950000Y26500000D02*
X0Y26500000D01*
X37948194Y17351594D02*
G75*
G03*
X38948209Y16351594I1000006J6D01*
G01*
X39950000Y18350000D02*
X44950000Y18350000D01*
X39950000Y18350000D02*
X39950000Y21550000D01*
X37950000Y25550000D02*
X37950000Y26500000D01*
X37950000Y21550000D02*
X37948209Y17351594D01*
X39950000Y21550000D02*
G75*
G03*
X37950000Y21550000I-1000000J0D01*
G01*
X48950000Y18350000D02*
X50000000Y18350000D01*
X39950000Y25550000D02*
X39950000Y26500000D01*
X37950000Y25550000D02*
G75*
G03*
X39950000Y25550000I1000000J0D01*
G01*
X38948209Y16351594D02*
X44950000Y16350000D01*
X0Y0D02*
X50000000Y0D01*
D11*
%TO.C,Y2*%
X20650000Y10155000D03*
X20650000Y7745000D03*
%TD*%
D12*
%TO.C,U4*%
X30500000Y21255000D03*
X30500000Y19985000D03*
X30500000Y18715000D03*
X30500000Y17445000D03*
X35400000Y17445000D03*
X35400000Y18715000D03*
X35400000Y19985000D03*
X35400000Y21255000D03*
%TD*%
D13*
%TO.C,D1*%
X8035000Y15540000D03*
X8035000Y16560000D03*
%TD*%
D14*
%TO.C,C10*%
X14465000Y16000000D03*
X15435000Y16000000D03*
%TD*%
%TO.C,C20*%
X12115000Y3850000D03*
X13085000Y3850000D03*
%TD*%
D15*
%TO.C,J1*%
X5065000Y16140000D03*
X5065000Y10360000D03*
D16*
X6140000Y16450000D03*
X6140000Y15650000D03*
D17*
X6140000Y14500000D03*
X6140000Y13500000D03*
X6140000Y13000000D03*
X6140000Y12000000D03*
D16*
X6140000Y10850000D03*
X6140000Y10050000D03*
X6140000Y10050000D03*
X6140000Y10850000D03*
D17*
X6140000Y11500000D03*
X6140000Y12500000D03*
X6140000Y14000000D03*
X6140000Y15000000D03*
D16*
X6140000Y15650000D03*
X6140000Y16450000D03*
D18*
X5565000Y8930000D03*
X5565000Y17570000D03*
D19*
X1385000Y8930000D03*
X1385000Y17570000D03*
%TD*%
D20*
%TO.C,C11*%
X28235000Y20400000D03*
X27265000Y20400000D03*
%TD*%
D14*
%TO.C,R3*%
X9500000Y10200000D03*
X10470000Y10200000D03*
%TD*%
D20*
%TO.C,C5*%
X15435000Y21450000D03*
X14465000Y21450000D03*
%TD*%
D21*
%TO.C,TP7*%
X16200000Y5450000D03*
%TD*%
D22*
%TO.C,U1*%
X17412500Y21650000D03*
X17412500Y21150000D03*
X17412500Y20650000D03*
X17412500Y20150000D03*
X17412500Y19650000D03*
X17412500Y19150000D03*
X17412500Y18650000D03*
X17412500Y18150000D03*
X17412500Y17650000D03*
X17412500Y17150000D03*
X17412500Y16650000D03*
X17412500Y16150000D03*
X17412500Y15650000D03*
X17412500Y15150000D03*
D23*
X18100000Y14462500D03*
X18600000Y14462500D03*
X19100000Y14462500D03*
X19600000Y14462500D03*
X20100000Y14462500D03*
X20600000Y14462500D03*
X21100000Y14462500D03*
X21600000Y14462500D03*
X22100000Y14462500D03*
X22600000Y14462500D03*
X23100000Y14462500D03*
X23600000Y14462500D03*
X24100000Y14462500D03*
X24600000Y14462500D03*
D22*
X25287500Y15150000D03*
X25287500Y15650000D03*
X25287500Y16150000D03*
X25287500Y16650000D03*
X25287500Y17150000D03*
X25287500Y17650000D03*
X25287500Y18150000D03*
X25287500Y18650000D03*
X25287500Y19150000D03*
X25287500Y19650000D03*
X25287500Y20150000D03*
X25287500Y20650000D03*
X25287500Y21150000D03*
X25287500Y21650000D03*
D23*
X24600000Y22337500D03*
X24100000Y22337500D03*
X23600000Y22337500D03*
X23100000Y22337500D03*
X22600000Y22337500D03*
X22100000Y22337500D03*
X21600000Y22337500D03*
X21100000Y22337500D03*
X20600000Y22337500D03*
X20100000Y22337500D03*
X19600000Y22337500D03*
X19100000Y22337500D03*
X18600000Y22337500D03*
X18100000Y22337500D03*
D24*
X21350000Y18400000D03*
%TD*%
D25*
%TO.C,J2*%
X44785000Y9250000D03*
X44785000Y10250000D03*
X44785000Y11250000D03*
X44785000Y12250000D03*
D26*
X48660000Y7950000D03*
X48660000Y13550000D03*
%TD*%
D20*
%TO.C,R40*%
X38985000Y6400000D03*
X38015000Y6400000D03*
%TD*%
D27*
%TO.C,MP1*%
X3550000Y22950000D03*
%TD*%
D14*
%TO.C,C19*%
X12115000Y2700000D03*
X13085000Y2700000D03*
%TD*%
D28*
%TO.C,D5*%
X10410000Y12900000D03*
X10410000Y13600000D03*
X9560000Y13250000D03*
%TD*%
D29*
%TO.C,R25*%
X16100000Y11515000D03*
X16100000Y12485000D03*
%TD*%
D20*
%TO.C,R20*%
X16035000Y2700000D03*
X15065000Y2700000D03*
%TD*%
D30*
%TO.C,R6*%
X18900000Y25285000D03*
X18900000Y24315000D03*
%TD*%
D14*
%TO.C,C28*%
X22425000Y7400000D03*
X23395000Y7400000D03*
%TD*%
D29*
%TO.C,C36*%
X29550000Y1115000D03*
X29550000Y2085000D03*
%TD*%
D14*
%TO.C,C18*%
X10015000Y18100000D03*
X10985000Y18100000D03*
%TD*%
%TO.C,C30*%
X34415000Y22750000D03*
X35385000Y22750000D03*
%TD*%
D21*
%TO.C,TP8*%
X39000000Y5250000D03*
%TD*%
D30*
%TO.C,R5*%
X20000000Y25285000D03*
X20000000Y24315000D03*
%TD*%
D31*
%TO.C,U6*%
X48525000Y24975000D03*
X48525000Y24325000D03*
X48525000Y23675000D03*
X48525000Y23025000D03*
X46475001Y23025000D03*
X46475001Y23675000D03*
X46475001Y24325000D03*
X46475001Y24975000D03*
%TD*%
D20*
%TO.C,R7*%
X16035000Y3850000D03*
X15065000Y3850000D03*
%TD*%
D30*
%TO.C,R15*%
X24900000Y12485000D03*
X24900000Y11515000D03*
%TD*%
D29*
%TO.C,R26*%
X36200000Y14415000D03*
X36200000Y15385000D03*
%TD*%
D14*
%TO.C,R23*%
X38015000Y7500000D03*
X38985000Y7500000D03*
%TD*%
D29*
%TO.C,C8*%
X21100000Y24315000D03*
X21100000Y25285000D03*
%TD*%
%TO.C,R17*%
X25150000Y1115000D03*
X25150000Y2085000D03*
%TD*%
%TO.C,C23*%
X29550000Y14415000D03*
X29550000Y15385000D03*
%TD*%
D32*
%TO.C,FB1*%
X13150000Y11000000D03*
X13150000Y12400000D03*
%TD*%
D33*
%TO.C,U5*%
X48550000Y19915000D03*
X48550000Y20715000D03*
X47150000Y20715000D03*
X47150000Y19915000D03*
%TD*%
D29*
%TO.C,C29*%
X36250000Y1115000D03*
X36250000Y2085000D03*
%TD*%
D20*
%TO.C,R22*%
X23395000Y8500000D03*
X22425000Y8500000D03*
%TD*%
D27*
%TO.C,MP2*%
X3700000Y3700000D03*
%TD*%
D30*
%TO.C,R13*%
X22700000Y12485000D03*
X22700000Y11515000D03*
%TD*%
D21*
%TO.C,TP9*%
X39000000Y10800000D03*
%TD*%
D30*
%TO.C,C22*%
X15050000Y6885000D03*
X15050000Y5915000D03*
%TD*%
D34*
%TO.C,Y3*%
X21010000Y1650000D03*
X21010000Y5650000D03*
X18610000Y5650000D03*
X18610000Y1650000D03*
%TD*%
D29*
%TO.C,C38*%
X45150000Y19680000D03*
X45150000Y20650000D03*
%TD*%
D35*
%TO.C,FB3*%
X9950000Y6400000D03*
X8550000Y6400000D03*
%TD*%
D30*
%TO.C,R37*%
X43750000Y22650000D03*
X43750000Y21680000D03*
%TD*%
D29*
%TO.C,R16*%
X26250000Y1115000D03*
X26250000Y2085000D03*
%TD*%
D21*
%TO.C,TP6*%
X16200000Y7350000D03*
%TD*%
D36*
%TO.C,U2*%
X13600000Y5550000D03*
X13600000Y7450000D03*
X11500000Y6500000D03*
%TD*%
D14*
%TO.C,C6*%
X14465000Y14900000D03*
X15435000Y14900000D03*
%TD*%
%TO.C,C33*%
X22440000Y4100000D03*
X23410000Y4100000D03*
%TD*%
D20*
%TO.C,R35*%
X28235000Y19300000D03*
X27265000Y19300000D03*
%TD*%
D30*
%TO.C,C37*%
X41250000Y24635000D03*
X41250000Y23665000D03*
%TD*%
D32*
%TO.C,FB2*%
X14750000Y11000000D03*
X14750000Y12400000D03*
%TD*%
D34*
%TO.C,Y1*%
X12800000Y19900000D03*
X12800000Y23900000D03*
X10400000Y23900000D03*
X10400000Y19900000D03*
%TD*%
D20*
%TO.C,R31*%
X28235000Y21500000D03*
X27265000Y21500000D03*
%TD*%
D37*
%TO.C,LD1*%
X11400000Y1300000D03*
X12900000Y1300000D03*
%TD*%
D29*
%TO.C,C32*%
X34050000Y1115000D03*
X34050000Y2085000D03*
%TD*%
D38*
%TO.C,D6*%
X41925000Y12100000D03*
X41925000Y11400000D03*
X42775000Y11750000D03*
%TD*%
D14*
%TO.C,C26*%
X22425000Y9600000D03*
X23395000Y9600000D03*
%TD*%
D30*
%TO.C,C31*%
X32950000Y2085000D03*
X32950000Y1115000D03*
%TD*%
D29*
%TO.C,C2*%
X22200000Y24315000D03*
X22200000Y25285000D03*
%TD*%
D21*
%TO.C,TP4*%
X39000000Y3950000D03*
%TD*%
D30*
%TO.C,R9*%
X37300000Y15385000D03*
X37300000Y14415000D03*
%TD*%
%TO.C,C21*%
X28450000Y15385000D03*
X28450000Y14415000D03*
%TD*%
D29*
%TO.C,C24*%
X41985000Y9365000D03*
X41985000Y10335000D03*
%TD*%
%TO.C,C1*%
X17200000Y11515000D03*
X17200000Y12485000D03*
%TD*%
D20*
%TO.C,R28*%
X23410000Y5200000D03*
X22440000Y5200000D03*
%TD*%
D14*
%TO.C,R24*%
X38015000Y8600000D03*
X38985000Y8600000D03*
%TD*%
D29*
%TO.C,C12*%
X25500000Y24315000D03*
X25500000Y25285000D03*
%TD*%
D14*
%TO.C,C35*%
X22440000Y6300000D03*
X23410000Y6300000D03*
%TD*%
D29*
%TO.C,C7*%
X23300000Y24315000D03*
X23300000Y25285000D03*
%TD*%
D39*
%TO.C,D4*%
X10495000Y11550000D03*
X9475000Y11550000D03*
%TD*%
%TO.C,D3*%
X10495000Y14950000D03*
X9475000Y14950000D03*
%TD*%
D20*
%TO.C,R27*%
X31485000Y22750000D03*
X30515000Y22750000D03*
%TD*%
D32*
%TO.C,FB5*%
X37800000Y1200000D03*
X37800000Y2600000D03*
%TD*%
D28*
%TO.C,D8*%
X42025000Y21700000D03*
X42025000Y22400000D03*
X41175000Y22050000D03*
%TD*%
D20*
%TO.C,C27*%
X38985000Y12400000D03*
X38015000Y12400000D03*
%TD*%
D14*
%TO.C,R2*%
X9500000Y16300000D03*
X10470000Y16300000D03*
%TD*%
D29*
%TO.C,R21*%
X22500000Y1115000D03*
X22500000Y2085000D03*
%TD*%
D14*
%TO.C,R36*%
X27265000Y18200000D03*
X28235000Y18200000D03*
%TD*%
D20*
%TO.C,R39*%
X38985000Y9700000D03*
X38015000Y9700000D03*
%TD*%
D29*
%TO.C,R18*%
X24050000Y1115000D03*
X24050000Y2085000D03*
%TD*%
D13*
%TO.C,D9*%
X42500000Y23890000D03*
X42500000Y24910000D03*
%TD*%
D30*
%TO.C,R10*%
X38400000Y15385000D03*
X38400000Y14415000D03*
%TD*%
D29*
%TO.C,C25*%
X30650000Y14415000D03*
X30650000Y15385000D03*
%TD*%
D30*
%TO.C,R12*%
X21600000Y12485000D03*
X21600000Y11515000D03*
%TD*%
%TO.C,C3*%
X18300000Y12485000D03*
X18300000Y11515000D03*
%TD*%
D14*
%TO.C,C4*%
X9065000Y3850000D03*
X10035000Y3850000D03*
%TD*%
D29*
%TO.C,R8*%
X19400000Y11515000D03*
X19400000Y12485000D03*
%TD*%
%TO.C,R34*%
X34000000Y14415000D03*
X34000000Y15385000D03*
%TD*%
D20*
%TO.C,C9*%
X15435000Y20350000D03*
X14465000Y20350000D03*
%TD*%
D21*
%TO.C,TP5*%
X39800000Y13550000D03*
%TD*%
D30*
%TO.C,C34*%
X30650000Y2085000D03*
X30650000Y1115000D03*
%TD*%
D29*
%TO.C,R33*%
X35100000Y14415000D03*
X35100000Y15385000D03*
%TD*%
%TO.C,R30*%
X31800000Y14415000D03*
X31800000Y15385000D03*
%TD*%
D14*
%TO.C,C16*%
X9065000Y2700000D03*
X10035000Y2700000D03*
%TD*%
D29*
%TO.C,R11*%
X20500000Y11515000D03*
X20500000Y12485000D03*
%TD*%
D35*
%TO.C,FB4*%
X9950000Y1300000D03*
X8550000Y1300000D03*
%TD*%
D30*
%TO.C,C40*%
X45150000Y22650000D03*
X45150000Y21680000D03*
%TD*%
D21*
%TO.C,TP3*%
X17650000Y25300000D03*
%TD*%
D14*
%TO.C,R32*%
X27265000Y22650000D03*
X28235000Y22650000D03*
%TD*%
D40*
%TO.C,D7*%
X43085000Y10260000D03*
X43085000Y9240000D03*
%TD*%
D27*
%TO.C,MP3*%
X46400000Y3600000D03*
%TD*%
D20*
%TO.C,C15*%
X15435000Y23650000D03*
X14465000Y23650000D03*
%TD*%
D29*
%TO.C,C13*%
X24400000Y24315000D03*
X24400000Y25285000D03*
%TD*%
%TO.C,R19*%
X27350000Y1115000D03*
X27350000Y2085000D03*
%TD*%
D30*
%TO.C,R38*%
X43750000Y24650000D03*
X43750000Y23680000D03*
%TD*%
D14*
%TO.C,R4*%
X14465000Y22550000D03*
X15435000Y22550000D03*
%TD*%
D30*
%TO.C,C17*%
X27350000Y15385000D03*
X27350000Y14415000D03*
%TD*%
D20*
%TO.C,C14*%
X10985000Y25700000D03*
X10015000Y25700000D03*
%TD*%
D21*
%TO.C,TP1*%
X27300000Y24500000D03*
%TD*%
D14*
%TO.C,R1*%
X9065000Y5000000D03*
X10035000Y5000000D03*
%TD*%
D30*
%TO.C,R14*%
X23800000Y12485000D03*
X23800000Y11515000D03*
%TD*%
D29*
%TO.C,R29*%
X32900000Y14415000D03*
X32900000Y15385000D03*
%TD*%
D37*
%TO.C,LD2*%
X14350000Y1300000D03*
X15850000Y1300000D03*
%TD*%
D29*
%TO.C,C39*%
X45150000Y23680000D03*
X45150000Y24650000D03*
%TD*%
D21*
%TO.C,TP2*%
X27300000Y25650000D03*
%TD*%
D41*
%TO.C,U3*%
X27350000Y10750000D03*
X27350000Y10250000D03*
X27350000Y9750000D03*
X27350000Y9250000D03*
X27350000Y8750000D03*
X27350000Y8250000D03*
X27350000Y7750000D03*
X27350000Y7250000D03*
X27350000Y6750000D03*
X27350000Y6250000D03*
X27350000Y5750000D03*
X27350000Y5250000D03*
D42*
X28850000Y3750000D03*
X29350000Y3750000D03*
X29850000Y3750000D03*
X30350000Y3750000D03*
X30850000Y3750000D03*
X31350000Y3750000D03*
X31850000Y3750000D03*
X32350000Y3750000D03*
X32850000Y3750000D03*
X33350000Y3750000D03*
X33850000Y3750000D03*
X34350000Y3750000D03*
D41*
X35850000Y5250000D03*
X35850000Y5750000D03*
X35850000Y6250000D03*
X35850000Y6750000D03*
X35850000Y7250000D03*
X35850000Y7750000D03*
X35850000Y8250000D03*
X35850000Y8750000D03*
X35850000Y9250000D03*
X35850000Y9750000D03*
X35850000Y10250000D03*
X35850000Y10750000D03*
D42*
X34350000Y12250000D03*
X33850000Y12250000D03*
X33350000Y12250000D03*
X32850000Y12250000D03*
X32350000Y12250000D03*
X31850000Y12250000D03*
X31350000Y12250000D03*
X30850000Y12250000D03*
X30350000Y12250000D03*
X29850000Y12250000D03*
X29350000Y12250000D03*
X28850000Y12250000D03*
%TD*%
D40*
%TO.C,D2*%
X8035000Y10960000D03*
X8035000Y9940000D03*
%TD*%
M02*
