%TF.GenerationSoftware,KiCad,Pcbnew,6.0.10-86aedd382b~118~ubuntu22.04.1*%
%TF.CreationDate,2023-01-11T10:16:45+01:00*%
%TF.ProjectId,nuc-compute-cluster-environment-sensor,6e75632d-636f-46d7-9075-74652d636c75,rev?*%
%TF.SameCoordinates,Original*%
%TF.FileFunction,Other,User*%
%FSLAX46Y46*%
G04 Gerber Fmt 4.6, Leading zero omitted, Abs format (unit mm)*
G04 Created by KiCad (PCBNEW 6.0.10-86aedd382b~118~ubuntu22.04.1) date 2023-01-11 10:16:45 commit a17aeb8*
%MOMM*%
%LPD*%
G01*
G04 APERTURE LIST*
%TA.AperFunction,Profile*%
%ADD10C,0.100000*%
%TD*%
%ADD11C,0.050000*%
G04 APERTURE END LIST*
D10*
X50000000Y18350000D02*
X50000000Y26500000D01*
X48950000Y18350000D02*
G75*
G03*
X48950000Y16350000I0J-1000000D01*
G01*
X44950000Y16350000D02*
G75*
G03*
X44950000Y18350000I0J1000000D01*
G01*
X50000000Y16350000D02*
X50000000Y0D01*
X39950000Y26500000D02*
X50000000Y26500000D01*
X0Y26500000D02*
X0Y0D01*
X48950000Y16350000D02*
X50000000Y16350000D01*
X37950000Y26500000D02*
X0Y26500000D01*
X37948194Y17351594D02*
G75*
G03*
X38948209Y16351594I1000006J6D01*
G01*
X39950000Y18350000D02*
X44950000Y18350000D01*
X39950000Y18350000D02*
X39950000Y21550000D01*
X37950000Y25550000D02*
X37950000Y26500000D01*
X37950000Y21550000D02*
X37948209Y17351594D01*
X39950000Y21550000D02*
G75*
G03*
X37950000Y21550000I-1000000J0D01*
G01*
X48950000Y18350000D02*
X50000000Y18350000D01*
X39950000Y25550000D02*
X39950000Y26500000D01*
X37950000Y25550000D02*
G75*
G03*
X39950000Y25550000I1000000J0D01*
G01*
X38948209Y16351594D02*
X44950000Y16350000D01*
X0Y0D02*
X50000000Y0D01*
D11*
X99228572Y-10235000D02*
X99228572Y-11235000D01*
%TO.C,Y2*%
X19450000Y6940000D02*
X21850000Y6940000D01*
X19450000Y10960000D02*
X21850000Y10960000D01*
X21850000Y10960000D02*
X21850000Y6940000D01*
X19450000Y10960000D02*
X19450000Y6940000D01*
%TO.C,U4*%
X36650000Y22050000D02*
X36650000Y16650000D01*
X29250000Y22050000D02*
X29250000Y16650000D01*
X36650000Y22050000D02*
X29250000Y22050000D01*
X36650000Y16650000D02*
X29250000Y16650000D01*
%TO.C,D1*%
X7635000Y15350000D02*
X8435000Y15350000D01*
X8435000Y15350000D02*
X8435000Y16750000D01*
X8435000Y16750000D02*
X7635000Y16750000D01*
X7635000Y16750000D02*
X7635000Y15350000D01*
%TO.C,C10*%
X15880000Y15530000D02*
X14020000Y15530000D01*
X15880000Y16470000D02*
X15880000Y15530000D01*
X14020000Y16470000D02*
X15880000Y16470000D01*
X14020000Y15530000D02*
X14020000Y16470000D01*
%TO.C,C20*%
X13530000Y4320000D02*
X13530000Y3380000D01*
X13530000Y3380000D02*
X11670000Y3380000D01*
X11670000Y4320000D02*
X13530000Y4320000D01*
X11670000Y3380000D02*
X11670000Y4320000D01*
%TO.C,J1*%
X-1465000Y18350000D02*
X-1465000Y8150000D01*
X6965000Y18350000D02*
X-1465000Y18350000D01*
X-1465000Y8150000D02*
X6965000Y8150000D01*
X6965000Y8150000D02*
X6965000Y18350000D01*
%TO.C,C11*%
X26820000Y20870000D02*
X28680000Y20870000D01*
X28680000Y20870000D02*
X28680000Y19930000D01*
X26820000Y19930000D02*
X26820000Y20870000D01*
X28680000Y19930000D02*
X26820000Y19930000D01*
%TO.C,R3*%
X10915000Y10670000D02*
X10915000Y9730000D01*
X9055000Y10670000D02*
X10915000Y10670000D01*
X9055000Y9730000D02*
X9055000Y10670000D01*
X10915000Y9730000D02*
X9055000Y9730000D01*
%TO.C,C5*%
X14020000Y21920000D02*
X15880000Y21920000D01*
X14020000Y20980000D02*
X14020000Y21920000D01*
X15880000Y21920000D02*
X15880000Y20980000D01*
X15880000Y20980000D02*
X14020000Y20980000D01*
%TO.C,U1*%
X16730000Y23020000D02*
X16730000Y13780000D01*
X25970000Y23020000D02*
X16730000Y23020000D01*
X16730000Y13780000D02*
X25970000Y13780000D01*
X25970000Y13780000D02*
X25970000Y23020000D01*
%TO.C,J2*%
X43760000Y14750000D02*
X49810000Y14750000D01*
X43760000Y6750000D02*
X43760000Y14750000D01*
X49810000Y14750000D02*
X49810000Y6750000D01*
X49810000Y6750000D02*
X43760000Y6750000D01*
%TO.C,R40*%
X39430000Y6870000D02*
X39430000Y5930000D01*
X39430000Y5930000D02*
X37570000Y5930000D01*
X37570000Y5930000D02*
X37570000Y6870000D01*
X37570000Y6870000D02*
X39430000Y6870000D01*
%TO.C,MP1*%
X6500000Y22950000D02*
G75*
G03*
X6500000Y22950000I-2950000J0D01*
G01*
%TO.C,C19*%
X13530000Y3170000D02*
X13530000Y2230000D01*
X13530000Y2230000D02*
X11670000Y2230000D01*
X11670000Y2230000D02*
X11670000Y3170000D01*
X11670000Y3170000D02*
X13530000Y3170000D01*
%TO.C,D5*%
X9160000Y14075000D02*
X10810000Y14075000D01*
X9160000Y12425000D02*
X9160000Y14075000D01*
X10810000Y12425000D02*
X9160000Y12425000D01*
X10810000Y14075000D02*
X10810000Y12425000D01*
%TO.C,R25*%
X16570000Y11070000D02*
X15630000Y11070000D01*
X16570000Y12930000D02*
X16570000Y11070000D01*
X15630000Y11070000D02*
X15630000Y12930000D01*
X15630000Y12930000D02*
X16570000Y12930000D01*
%TO.C,R20*%
X14620000Y3170000D02*
X16480000Y3170000D01*
X16480000Y2230000D02*
X14620000Y2230000D01*
X16480000Y3170000D02*
X16480000Y2230000D01*
X14620000Y2230000D02*
X14620000Y3170000D01*
%TO.C,R6*%
X19370000Y25730000D02*
X19370000Y23870000D01*
X18430000Y25730000D02*
X19370000Y25730000D01*
X18430000Y23870000D02*
X18430000Y25730000D01*
X19370000Y23870000D02*
X18430000Y23870000D01*
%TO.C,C28*%
X21980000Y6930000D02*
X21980000Y7870000D01*
X21980000Y7870000D02*
X23840000Y7870000D01*
X23840000Y6930000D02*
X21980000Y6930000D01*
X23840000Y7870000D02*
X23840000Y6930000D01*
%TO.C,C36*%
X29080000Y2530000D02*
X30020000Y2530000D01*
X29080000Y670000D02*
X29080000Y2530000D01*
X30020000Y670000D02*
X29080000Y670000D01*
X30020000Y2530000D02*
X30020000Y670000D01*
%TO.C,C18*%
X11430000Y18570000D02*
X11430000Y17630000D01*
X9570000Y18570000D02*
X11430000Y18570000D01*
X9570000Y17630000D02*
X9570000Y18570000D01*
X11430000Y17630000D02*
X9570000Y17630000D01*
%TO.C,C30*%
X35830000Y23220000D02*
X35830000Y22280000D01*
X33970000Y23220000D02*
X35830000Y23220000D01*
X33970000Y22280000D02*
X33970000Y23220000D01*
X35830000Y22280000D02*
X33970000Y22280000D01*
%TO.C,R5*%
X19530000Y25730000D02*
X20470000Y25730000D01*
X20470000Y25730000D02*
X20470000Y23870000D01*
X20470000Y23870000D02*
X19530000Y23870000D01*
X19530000Y23870000D02*
X19530000Y25730000D01*
%TO.C,U6*%
X49000000Y25500000D02*
X46000000Y25500000D01*
X49000000Y22500000D02*
X46000000Y22500000D01*
X49000000Y22500000D02*
X49000000Y25500000D01*
X46000000Y22500000D02*
X46000000Y25500000D01*
%TO.C,R7*%
X16480000Y3380000D02*
X14620000Y3380000D01*
X16480000Y4320000D02*
X16480000Y3380000D01*
X14620000Y4320000D02*
X16480000Y4320000D01*
X14620000Y3380000D02*
X14620000Y4320000D01*
%TO.C,R15*%
X24430000Y11070000D02*
X24430000Y12930000D01*
X25370000Y11070000D02*
X24430000Y11070000D01*
X25370000Y12930000D02*
X25370000Y11070000D01*
X24430000Y12930000D02*
X25370000Y12930000D01*
%TO.C,R26*%
X35730000Y13970000D02*
X35730000Y15830000D01*
X35730000Y15830000D02*
X36670000Y15830000D01*
X36670000Y13970000D02*
X35730000Y13970000D01*
X36670000Y15830000D02*
X36670000Y13970000D01*
%TO.C,R23*%
X39430000Y7970000D02*
X39430000Y7030000D01*
X37570000Y7030000D02*
X37570000Y7970000D01*
X37570000Y7970000D02*
X39430000Y7970000D01*
X39430000Y7030000D02*
X37570000Y7030000D01*
%TO.C,C8*%
X21570000Y23870000D02*
X20630000Y23870000D01*
X21570000Y25730000D02*
X21570000Y23870000D01*
X20630000Y25730000D02*
X21570000Y25730000D01*
X20630000Y23870000D02*
X20630000Y25730000D01*
%TO.C,R17*%
X24680000Y670000D02*
X24680000Y2530000D01*
X25620000Y2530000D02*
X25620000Y670000D01*
X24680000Y2530000D02*
X25620000Y2530000D01*
X25620000Y670000D02*
X24680000Y670000D01*
%TO.C,C23*%
X29080000Y15830000D02*
X30020000Y15830000D01*
X30020000Y15830000D02*
X30020000Y13970000D01*
X30020000Y13970000D02*
X29080000Y13970000D01*
X29080000Y13970000D02*
X29080000Y15830000D01*
%TO.C,FB1*%
X12440000Y10590000D02*
X12440000Y12810000D01*
X13860000Y12810000D02*
X13860000Y12950000D01*
X12440000Y10590000D02*
X12440000Y10450000D01*
X13860000Y12810000D02*
X13860000Y10590000D01*
X12440000Y12810000D02*
X12440000Y12950000D01*
X12440000Y12950000D02*
X13860000Y12950000D01*
X13860000Y10450000D02*
X12440000Y10450000D01*
X13860000Y10590000D02*
X13860000Y10450000D01*
%TO.C,U5*%
X48950000Y19215000D02*
X46750000Y19215000D01*
X46750000Y19215000D02*
X46750000Y21415000D01*
X46750000Y21415000D02*
X48950000Y21415000D01*
X48950000Y21415000D02*
X48950000Y19215000D01*
%TO.C,C29*%
X35780000Y670000D02*
X35780000Y2530000D01*
X36720000Y670000D02*
X35780000Y670000D01*
X35780000Y2530000D02*
X36720000Y2530000D01*
X36720000Y2530000D02*
X36720000Y670000D01*
%TO.C,R22*%
X23840000Y8970000D02*
X23840000Y8030000D01*
X21980000Y8970000D02*
X23840000Y8970000D01*
X21980000Y8030000D02*
X21980000Y8970000D01*
X23840000Y8030000D02*
X21980000Y8030000D01*
%TO.C,MP2*%
X6650000Y3700000D02*
G75*
G03*
X6650000Y3700000I-2950000J0D01*
G01*
%TO.C,R13*%
X23170000Y11070000D02*
X22230000Y11070000D01*
X23170000Y12930000D02*
X23170000Y11070000D01*
X22230000Y11070000D02*
X22230000Y12930000D01*
X22230000Y12930000D02*
X23170000Y12930000D01*
%TO.C,C22*%
X14580000Y7330000D02*
X15520000Y7330000D01*
X14580000Y5470000D02*
X14580000Y7330000D01*
X15520000Y7330000D02*
X15520000Y5470000D01*
X15520000Y5470000D02*
X14580000Y5470000D01*
%TO.C,Y3*%
X17760000Y6800000D02*
X21860000Y6800000D01*
X21860000Y500000D02*
X21860000Y6800000D01*
X17760000Y500000D02*
X17760000Y6800000D01*
X21860000Y500000D02*
X17760000Y500000D01*
%TO.C,C38*%
X45620000Y21095000D02*
X45620000Y19235000D01*
X44680000Y19235000D02*
X44680000Y21095000D01*
X45620000Y19235000D02*
X44680000Y19235000D01*
X44680000Y21095000D02*
X45620000Y21095000D01*
%TO.C,FB3*%
X8140000Y5690000D02*
X8000000Y5690000D01*
X10360000Y5690000D02*
X10500000Y5690000D01*
X8000000Y5690000D02*
X8000000Y7110000D01*
X10500000Y7110000D02*
X10500000Y5690000D01*
X8140000Y7110000D02*
X10360000Y7110000D01*
X8140000Y7110000D02*
X8000000Y7110000D01*
X10360000Y7110000D02*
X10500000Y7110000D01*
X10360000Y5690000D02*
X8140000Y5690000D01*
%TO.C,R37*%
X44220000Y23095000D02*
X44220000Y21235000D01*
X43280000Y21235000D02*
X43280000Y23095000D01*
X44220000Y21235000D02*
X43280000Y21235000D01*
X43280000Y23095000D02*
X44220000Y23095000D01*
%TO.C,R16*%
X25780000Y670000D02*
X25780000Y2530000D01*
X25780000Y2530000D02*
X26720000Y2530000D01*
X26720000Y670000D02*
X25780000Y670000D01*
X26720000Y2530000D02*
X26720000Y670000D01*
%TO.C,U2*%
X10725000Y4550000D02*
X10725000Y8450000D01*
X10725000Y8450000D02*
X14375000Y8450000D01*
X14375000Y4550000D02*
X14375000Y8450000D01*
X14375000Y4550000D02*
X10725000Y4550000D01*
%TO.C,C6*%
X15880000Y15370000D02*
X15880000Y14430000D01*
X15880000Y14430000D02*
X14020000Y14430000D01*
X14020000Y14430000D02*
X14020000Y15370000D01*
X14020000Y15370000D02*
X15880000Y15370000D01*
%TO.C,C33*%
X23855000Y4570000D02*
X23855000Y3630000D01*
X21995000Y4570000D02*
X23855000Y4570000D01*
X23855000Y3630000D02*
X21995000Y3630000D01*
X21995000Y3630000D02*
X21995000Y4570000D01*
%TO.C,R35*%
X28680000Y19770000D02*
X28680000Y18830000D01*
X26820000Y19770000D02*
X28680000Y19770000D01*
X26820000Y18830000D02*
X26820000Y19770000D01*
X28680000Y18830000D02*
X26820000Y18830000D01*
%TO.C,C37*%
X40780000Y23220000D02*
X40780000Y25080000D01*
X41720000Y23220000D02*
X40780000Y23220000D01*
X41720000Y25080000D02*
X41720000Y23220000D01*
X40780000Y25080000D02*
X41720000Y25080000D01*
%TO.C,FB2*%
X14040000Y12810000D02*
X14040000Y12950000D01*
X15460000Y12810000D02*
X15460000Y12950000D01*
X15460000Y12810000D02*
X15460000Y10590000D01*
X15460000Y10450000D02*
X14040000Y10450000D01*
X14040000Y10590000D02*
X14040000Y12810000D01*
X14040000Y10590000D02*
X14040000Y10450000D01*
X15460000Y10590000D02*
X15460000Y10450000D01*
X14040000Y12950000D02*
X15460000Y12950000D01*
%TO.C,Y1*%
X13650000Y18750000D02*
X9550000Y18750000D01*
X13650000Y18750000D02*
X13650000Y25050000D01*
X9550000Y18750000D02*
X9550000Y25050000D01*
X9550000Y25050000D02*
X13650000Y25050000D01*
%TO.C,R31*%
X28680000Y21030000D02*
X26820000Y21030000D01*
X28680000Y21970000D02*
X28680000Y21030000D01*
X26820000Y21030000D02*
X26820000Y21970000D01*
X26820000Y21970000D02*
X28680000Y21970000D01*
%TO.C,LD1*%
X13550000Y2010000D02*
X13550000Y590000D01*
X13550000Y2010000D02*
X10750000Y2010000D01*
X10750000Y2010000D02*
X10750000Y590000D01*
X13550000Y590000D02*
X10750000Y590000D01*
%TO.C,C32*%
X34520000Y2530000D02*
X34520000Y670000D01*
X33580000Y670000D02*
X33580000Y2530000D01*
X33580000Y2530000D02*
X34520000Y2530000D01*
X34520000Y670000D02*
X33580000Y670000D01*
%TO.C,D6*%
X43175000Y12575000D02*
X43175000Y10925000D01*
X41525000Y10925000D02*
X41525000Y12575000D01*
X43175000Y10925000D02*
X41525000Y10925000D01*
X41525000Y12575000D02*
X43175000Y12575000D01*
%TO.C,C26*%
X21980000Y9130000D02*
X21980000Y10070000D01*
X23840000Y9130000D02*
X21980000Y9130000D01*
X21980000Y10070000D02*
X23840000Y10070000D01*
X23840000Y10070000D02*
X23840000Y9130000D01*
%TO.C,C31*%
X33420000Y670000D02*
X32480000Y670000D01*
X32480000Y2530000D02*
X33420000Y2530000D01*
X32480000Y670000D02*
X32480000Y2530000D01*
X33420000Y2530000D02*
X33420000Y670000D01*
%TO.C,C2*%
X22670000Y25730000D02*
X22670000Y23870000D01*
X21730000Y23870000D02*
X21730000Y25730000D01*
X21730000Y25730000D02*
X22670000Y25730000D01*
X22670000Y23870000D02*
X21730000Y23870000D01*
%TO.C,R9*%
X37770000Y15830000D02*
X37770000Y13970000D01*
X37770000Y13970000D02*
X36830000Y13970000D01*
X36830000Y13970000D02*
X36830000Y15830000D01*
X36830000Y15830000D02*
X37770000Y15830000D01*
%TO.C,C21*%
X27980000Y15830000D02*
X28920000Y15830000D01*
X28920000Y13970000D02*
X27980000Y13970000D01*
X28920000Y15830000D02*
X28920000Y13970000D01*
X27980000Y13970000D02*
X27980000Y15830000D01*
%TO.C,C24*%
X42455000Y10780000D02*
X42455000Y8920000D01*
X41515000Y10780000D02*
X42455000Y10780000D01*
X42455000Y8920000D02*
X41515000Y8920000D01*
X41515000Y8920000D02*
X41515000Y10780000D01*
%TO.C,C1*%
X17670000Y11070000D02*
X16730000Y11070000D01*
X16730000Y11070000D02*
X16730000Y12930000D01*
X16730000Y12930000D02*
X17670000Y12930000D01*
X17670000Y12930000D02*
X17670000Y11070000D01*
%TO.C,R28*%
X23855000Y5670000D02*
X23855000Y4730000D01*
X21995000Y5670000D02*
X23855000Y5670000D01*
X23855000Y4730000D02*
X21995000Y4730000D01*
X21995000Y4730000D02*
X21995000Y5670000D01*
%TO.C,R24*%
X37570000Y9070000D02*
X39430000Y9070000D01*
X37570000Y8130000D02*
X37570000Y9070000D01*
X39430000Y9070000D02*
X39430000Y8130000D01*
X39430000Y8130000D02*
X37570000Y8130000D01*
%TO.C,C12*%
X25970000Y25730000D02*
X25970000Y23870000D01*
X25970000Y23870000D02*
X25030000Y23870000D01*
X25030000Y23870000D02*
X25030000Y25730000D01*
X25030000Y25730000D02*
X25970000Y25730000D01*
%TO.C,C35*%
X21995000Y5830000D02*
X21995000Y6770000D01*
X23855000Y5830000D02*
X21995000Y5830000D01*
X21995000Y6770000D02*
X23855000Y6770000D01*
X23855000Y6770000D02*
X23855000Y5830000D01*
%TO.C,C7*%
X23770000Y25730000D02*
X23770000Y23870000D01*
X22830000Y23870000D02*
X22830000Y25730000D01*
X22830000Y25730000D02*
X23770000Y25730000D01*
X23770000Y23870000D02*
X22830000Y23870000D01*
%TO.C,D4*%
X10685000Y11150000D02*
X9285000Y11150000D01*
X9285000Y11150000D02*
X9285000Y11950000D01*
X9285000Y11950000D02*
X10685000Y11950000D01*
X10685000Y11950000D02*
X10685000Y11150000D01*
%TO.C,D3*%
X10685000Y14550000D02*
X9285000Y14550000D01*
X9285000Y14550000D02*
X9285000Y15350000D01*
X9285000Y15350000D02*
X10685000Y15350000D01*
X10685000Y15350000D02*
X10685000Y14550000D01*
%TO.C,R27*%
X30070000Y23220000D02*
X31930000Y23220000D01*
X30070000Y22280000D02*
X30070000Y23220000D01*
X31930000Y22280000D02*
X30070000Y22280000D01*
X31930000Y23220000D02*
X31930000Y22280000D01*
%TO.C,FB5*%
X37090000Y790000D02*
X37090000Y3010000D01*
X37090000Y3150000D02*
X38510000Y3150000D01*
X38510000Y790000D02*
X38510000Y650000D01*
X37090000Y3010000D02*
X37090000Y3150000D01*
X38510000Y3010000D02*
X38510000Y790000D01*
X37090000Y790000D02*
X37090000Y650000D01*
X38510000Y3010000D02*
X38510000Y3150000D01*
X38510000Y650000D02*
X37090000Y650000D01*
%TO.C,D8*%
X40775000Y21225000D02*
X40775000Y22875000D01*
X42425000Y22875000D02*
X42425000Y21225000D01*
X40775000Y22875000D02*
X42425000Y22875000D01*
X42425000Y21225000D02*
X40775000Y21225000D01*
%TO.C,C27*%
X37570000Y11930000D02*
X37570000Y12870000D01*
X39430000Y11930000D02*
X37570000Y11930000D01*
X37570000Y12870000D02*
X39430000Y12870000D01*
X39430000Y12870000D02*
X39430000Y11930000D01*
%TO.C,R2*%
X10915000Y16770000D02*
X10915000Y15830000D01*
X9055000Y15830000D02*
X9055000Y16770000D01*
X9055000Y16770000D02*
X10915000Y16770000D01*
X10915000Y15830000D02*
X9055000Y15830000D01*
%TO.C,R21*%
X22030000Y670000D02*
X22030000Y2530000D01*
X22970000Y670000D02*
X22030000Y670000D01*
X22970000Y2530000D02*
X22970000Y670000D01*
X22030000Y2530000D02*
X22970000Y2530000D01*
%TO.C,R36*%
X26820000Y17730000D02*
X26820000Y18670000D01*
X26820000Y18670000D02*
X28680000Y18670000D01*
X28680000Y17730000D02*
X26820000Y17730000D01*
X28680000Y18670000D02*
X28680000Y17730000D01*
%TO.C,R39*%
X39430000Y10170000D02*
X39430000Y9230000D01*
X37570000Y9230000D02*
X37570000Y10170000D01*
X37570000Y10170000D02*
X39430000Y10170000D01*
X39430000Y9230000D02*
X37570000Y9230000D01*
%TO.C,R18*%
X24520000Y2530000D02*
X24520000Y670000D01*
X24520000Y670000D02*
X23580000Y670000D01*
X23580000Y2530000D02*
X24520000Y2530000D01*
X23580000Y670000D02*
X23580000Y2530000D01*
%TO.C,D9*%
X42100000Y23700000D02*
X42900000Y23700000D01*
X42900000Y23700000D02*
X42900000Y25100000D01*
X42900000Y25100000D02*
X42100000Y25100000D01*
X42100000Y25100000D02*
X42100000Y23700000D01*
%TO.C,R10*%
X38870000Y15830000D02*
X38870000Y13970000D01*
X37930000Y15830000D02*
X38870000Y15830000D01*
X37930000Y13970000D02*
X37930000Y15830000D01*
X38870000Y13970000D02*
X37930000Y13970000D01*
%TO.C,C25*%
X31120000Y15830000D02*
X31120000Y13970000D01*
X30180000Y15830000D02*
X31120000Y15830000D01*
X31120000Y13970000D02*
X30180000Y13970000D01*
X30180000Y13970000D02*
X30180000Y15830000D01*
%TO.C,R12*%
X22070000Y12930000D02*
X22070000Y11070000D01*
X21130000Y11070000D02*
X21130000Y12930000D01*
X21130000Y12930000D02*
X22070000Y12930000D01*
X22070000Y11070000D02*
X21130000Y11070000D01*
%TO.C,C3*%
X18770000Y12930000D02*
X18770000Y11070000D01*
X17830000Y12930000D02*
X18770000Y12930000D01*
X17830000Y11070000D02*
X17830000Y12930000D01*
X18770000Y11070000D02*
X17830000Y11070000D01*
%TO.C,C4*%
X8620000Y4320000D02*
X10480000Y4320000D01*
X8620000Y3380000D02*
X8620000Y4320000D01*
X10480000Y3380000D02*
X8620000Y3380000D01*
X10480000Y4320000D02*
X10480000Y3380000D01*
%TO.C,R8*%
X19870000Y12930000D02*
X19870000Y11070000D01*
X19870000Y11070000D02*
X18930000Y11070000D01*
X18930000Y11070000D02*
X18930000Y12930000D01*
X18930000Y12930000D02*
X19870000Y12930000D01*
%TO.C,R34*%
X33530000Y13970000D02*
X33530000Y15830000D01*
X34470000Y15830000D02*
X34470000Y13970000D01*
X33530000Y15830000D02*
X34470000Y15830000D01*
X34470000Y13970000D02*
X33530000Y13970000D01*
%TO.C,C9*%
X15880000Y19880000D02*
X14020000Y19880000D01*
X14020000Y20820000D02*
X15880000Y20820000D01*
X14020000Y19880000D02*
X14020000Y20820000D01*
X15880000Y20820000D02*
X15880000Y19880000D01*
%TO.C,C34*%
X30180000Y670000D02*
X30180000Y2530000D01*
X30180000Y2530000D02*
X31120000Y2530000D01*
X31120000Y670000D02*
X30180000Y670000D01*
X31120000Y2530000D02*
X31120000Y670000D01*
%TO.C,R33*%
X35570000Y15830000D02*
X35570000Y13970000D01*
X35570000Y13970000D02*
X34630000Y13970000D01*
X34630000Y13970000D02*
X34630000Y15830000D01*
X34630000Y15830000D02*
X35570000Y15830000D01*
%TO.C,R30*%
X31330000Y15830000D02*
X32270000Y15830000D01*
X32270000Y15830000D02*
X32270000Y13970000D01*
X32270000Y13970000D02*
X31330000Y13970000D01*
X31330000Y13970000D02*
X31330000Y15830000D01*
%TO.C,C16*%
X8620000Y3170000D02*
X10480000Y3170000D01*
X10480000Y2230000D02*
X8620000Y2230000D01*
X10480000Y3170000D02*
X10480000Y2230000D01*
X8620000Y2230000D02*
X8620000Y3170000D01*
%TO.C,R11*%
X20030000Y12930000D02*
X20970000Y12930000D01*
X20030000Y11070000D02*
X20030000Y12930000D01*
X20970000Y11070000D02*
X20030000Y11070000D01*
X20970000Y12930000D02*
X20970000Y11070000D01*
%TO.C,FB4*%
X10360000Y590000D02*
X8140000Y590000D01*
X10360000Y2010000D02*
X10500000Y2010000D01*
X8140000Y2010000D02*
X8000000Y2010000D01*
X8140000Y590000D02*
X8000000Y590000D01*
X8140000Y2010000D02*
X10360000Y2010000D01*
X8000000Y590000D02*
X8000000Y2010000D01*
X10500000Y2010000D02*
X10500000Y590000D01*
X10360000Y590000D02*
X10500000Y590000D01*
%TO.C,C40*%
X45620000Y21235000D02*
X44680000Y21235000D01*
X45620000Y23095000D02*
X45620000Y21235000D01*
X44680000Y23095000D02*
X45620000Y23095000D01*
X44680000Y21235000D02*
X44680000Y23095000D01*
%TO.C,R32*%
X26820000Y22180000D02*
X26820000Y23120000D01*
X28680000Y22180000D02*
X26820000Y22180000D01*
X28680000Y23120000D02*
X28680000Y22180000D01*
X26820000Y23120000D02*
X28680000Y23120000D01*
%TO.C,D7*%
X43485000Y10450000D02*
X42685000Y10450000D01*
X42685000Y10450000D02*
X42685000Y9050000D01*
X42685000Y9050000D02*
X43485000Y9050000D01*
X43485000Y9050000D02*
X43485000Y10450000D01*
%TO.C,MP3*%
X49350000Y3600000D02*
G75*
G03*
X49350000Y3600000I-2950000J0D01*
G01*
%TO.C,C15*%
X15880000Y23180000D02*
X14020000Y23180000D01*
X14020000Y23180000D02*
X14020000Y24120000D01*
X14020000Y24120000D02*
X15880000Y24120000D01*
X15880000Y24120000D02*
X15880000Y23180000D01*
%TO.C,C13*%
X23930000Y23870000D02*
X23930000Y25730000D01*
X24870000Y25730000D02*
X24870000Y23870000D01*
X24870000Y23870000D02*
X23930000Y23870000D01*
X23930000Y25730000D02*
X24870000Y25730000D01*
%TO.C,R19*%
X26880000Y2530000D02*
X27820000Y2530000D01*
X26880000Y670000D02*
X26880000Y2530000D01*
X27820000Y2530000D02*
X27820000Y670000D01*
X27820000Y670000D02*
X26880000Y670000D01*
%TO.C,R38*%
X43280000Y25095000D02*
X44220000Y25095000D01*
X44220000Y25095000D02*
X44220000Y23235000D01*
X44220000Y23235000D02*
X43280000Y23235000D01*
X43280000Y23235000D02*
X43280000Y25095000D01*
%TO.C,R4*%
X14020000Y22080000D02*
X14020000Y23020000D01*
X14020000Y23020000D02*
X15880000Y23020000D01*
X15880000Y22080000D02*
X14020000Y22080000D01*
X15880000Y23020000D02*
X15880000Y22080000D01*
%TO.C,C17*%
X26880000Y13970000D02*
X26880000Y15830000D01*
X27820000Y13970000D02*
X26880000Y13970000D01*
X26880000Y15830000D02*
X27820000Y15830000D01*
X27820000Y15830000D02*
X27820000Y13970000D01*
%TO.C,C14*%
X9570000Y25230000D02*
X9570000Y26170000D01*
X11430000Y25230000D02*
X9570000Y25230000D01*
X11430000Y26170000D02*
X11430000Y25230000D01*
X9570000Y26170000D02*
X11430000Y26170000D01*
%TO.C,R1*%
X8620000Y4530000D02*
X8620000Y5470000D01*
X8620000Y5470000D02*
X10480000Y5470000D01*
X10480000Y4530000D02*
X8620000Y4530000D01*
X10480000Y5470000D02*
X10480000Y4530000D01*
%TO.C,R14*%
X24270000Y11070000D02*
X23330000Y11070000D01*
X24270000Y12930000D02*
X24270000Y11070000D01*
X23330000Y11070000D02*
X23330000Y12930000D01*
X23330000Y12930000D02*
X24270000Y12930000D01*
%TO.C,R29*%
X33370000Y13970000D02*
X32430000Y13970000D01*
X33370000Y15830000D02*
X33370000Y13970000D01*
X32430000Y13970000D02*
X32430000Y15830000D01*
X32430000Y15830000D02*
X33370000Y15830000D01*
%TO.C,LD2*%
X16500000Y2010000D02*
X13700000Y2010000D01*
X16500000Y2010000D02*
X16500000Y590000D01*
X16500000Y590000D02*
X13700000Y590000D01*
X13700000Y2010000D02*
X13700000Y590000D01*
%TO.C,C39*%
X45620000Y25095000D02*
X45620000Y23235000D01*
X44680000Y23235000D02*
X44680000Y25095000D01*
X44680000Y25095000D02*
X45620000Y25095000D01*
X45620000Y23235000D02*
X44680000Y23235000D01*
%TO.C,U3*%
X26500000Y13100000D02*
X26500000Y2900000D01*
X36700000Y2900000D02*
X36700000Y13100000D01*
X26500000Y2900000D02*
X36700000Y2900000D01*
X26500000Y13100000D02*
X36700000Y13100000D01*
%TO.C,D2*%
X8435000Y11150000D02*
X7635000Y11150000D01*
X7635000Y11150000D02*
X7635000Y9750000D01*
X7635000Y9750000D02*
X8435000Y9750000D01*
X8435000Y9750000D02*
X8435000Y11150000D01*
%TD*%
M02*
