%TF.GenerationSoftware,KiCad,Pcbnew,6.0.10-86aedd382b~118~ubuntu22.04.1*%
%TF.CreationDate,2023-01-11T10:16:45+01:00*%
%TF.ProjectId,nuc-compute-cluster-environment-sensor,6e75632d-636f-46d7-9075-74652d636c75,rev?*%
%TF.SameCoordinates,Original*%
%TF.FileFunction,Copper,L2,Inr*%
%TF.FilePolarity,Positive*%
%FSLAX46Y46*%
G04 Gerber Fmt 4.6, Leading zero omitted, Abs format (unit mm)*
G04 Created by KiCad (PCBNEW 6.0.10-86aedd382b~118~ubuntu22.04.1) date 2023-01-11 10:16:45 commit a17aeb8*
%MOMM*%
%LPD*%
G01*
G04 APERTURE LIST*
%TA.AperFunction,Profile*%
%ADD10C,0.100000*%
%TD*%
%TA.AperFunction,ComponentPad*%
%ADD11O,2.100000X1.050000*%
%TD*%
%TA.AperFunction,ComponentPad*%
%ADD12O,2.000000X1.000000*%
%TD*%
%TA.AperFunction,ComponentPad*%
%ADD13C,5.400000*%
%TD*%
%TA.AperFunction,ViaPad*%
%ADD14C,0.600000*%
%TD*%
%TA.AperFunction,Conductor*%
%ADD15C,0.250000*%
%TD*%
G04 APERTURE END LIST*
D10*
X50000000Y18350000D02*
X50000000Y26500000D01*
X48950000Y18350000D02*
G75*
G03*
X48950000Y16350000I0J-1000000D01*
G01*
X44950000Y16350000D02*
G75*
G03*
X44950000Y18350000I0J1000000D01*
G01*
X50000000Y16350000D02*
X50000000Y0D01*
X39950000Y26500000D02*
X50000000Y26500000D01*
X0Y26500000D02*
X0Y0D01*
X48950000Y16350000D02*
X50000000Y16350000D01*
X37950000Y26500000D02*
X0Y26500000D01*
X37948194Y17351594D02*
G75*
G03*
X38948209Y16351594I1000006J6D01*
G01*
X39950000Y18350000D02*
X44950000Y18350000D01*
X39950000Y18350000D02*
X39950000Y21550000D01*
X37950000Y25550000D02*
X37950000Y26500000D01*
X37950000Y21550000D02*
X37948209Y17351594D01*
X39950000Y21550000D02*
G75*
G03*
X37950000Y21550000I-1000000J0D01*
G01*
X48950000Y18350000D02*
X50000000Y18350000D01*
X39950000Y25550000D02*
X39950000Y26500000D01*
X37950000Y25550000D02*
G75*
G03*
X39950000Y25550000I1000000J0D01*
G01*
X38948209Y16351594D02*
X44950000Y16350000D01*
X0Y0D02*
X50000000Y0D01*
D11*
%TO.N,GNDREF*%
%TO.C,J1*%
X5565000Y8930000D03*
X5565000Y17570000D03*
D12*
X1385000Y8930000D03*
X1385000Y17570000D03*
%TD*%
D13*
%TO.N,unconnected-(MP1-Pad1)*%
%TO.C,MP1*%
X3550000Y22950000D03*
%TD*%
%TO.N,unconnected-(MP2-Pad1)*%
%TO.C,MP2*%
X3700000Y3700000D03*
%TD*%
%TO.N,unconnected-(MP3-Pad1)*%
%TO.C,MP3*%
X46400000Y3600000D03*
%TD*%
D14*
%TO.N,GND*%
X17200000Y13250000D03*
X26450000Y18250000D03*
X37000000Y25000000D03*
X8150000Y18300000D03*
X33150000Y21650000D03*
X18350000Y25950000D03*
X19800000Y5650000D03*
X27250000Y23500000D03*
X33800000Y21000000D03*
X44800000Y8450000D03*
X26350000Y20400000D03*
X34400000Y23650000D03*
X13100000Y4750000D03*
X20500000Y8950000D03*
X40450000Y24600000D03*
X16850000Y2700000D03*
X7150000Y17300000D03*
X41225500Y9350000D03*
X21650000Y25950000D03*
X10850000Y2700000D03*
X37250000Y10350000D03*
X43750000Y19000000D03*
X11350000Y21750000D03*
X23850000Y25950000D03*
X11450000Y18950000D03*
X16850000Y3850000D03*
X25250500Y22300000D03*
X9105274Y13248080D03*
X13800000Y4750000D03*
X32750000Y13450000D03*
X33500000Y2700498D03*
X22750000Y25950000D03*
X15050000Y5100000D03*
X13850000Y20900000D03*
X19800000Y1650000D03*
X10850000Y5000000D03*
X32150000Y20800000D03*
X43750000Y25450000D03*
X20550000Y25950000D03*
X14450000Y24500000D03*
X42500000Y25550000D03*
X35150000Y1400000D03*
X6800000Y7850000D03*
X24950000Y25950000D03*
X32850000Y20050000D03*
X18300000Y10650000D03*
X26250000Y13900000D03*
X8650000Y10350000D03*
X12800000Y25350000D03*
X10850000Y3850000D03*
X28350000Y13600000D03*
X7150000Y18300000D03*
X19810000Y3700000D03*
X30113345Y13787331D03*
X30500000Y16600000D03*
X31425500Y2100000D03*
X8150000Y17300000D03*
X8650000Y16150000D03*
X28950000Y17450000D03*
X43100000Y8500000D03*
X38400000Y11550000D03*
X29550000Y16200000D03*
X15100000Y13900000D03*
X43450000Y11750000D03*
%TO.N,Net-(BAT1-PadP)*%
X25150000Y10750000D03*
%TO.N,+3V3*%
X35204122Y23645878D03*
X24050000Y3050000D03*
X28450000Y16200000D03*
X45150000Y25450000D03*
X12050000Y12000000D03*
X35100000Y16200000D03*
X11300000Y12000000D03*
X29700000Y22750000D03*
X44350000Y20150000D03*
X22600000Y23450000D03*
X38750000Y2600000D03*
X41174500Y10350000D03*
X19450000Y25950000D03*
X37100000Y6500000D03*
X40600000Y21000000D03*
X38500000Y13250000D03*
X42500000Y23250000D03*
X11300000Y11250000D03*
X37000000Y22000000D03*
X26350000Y21500000D03*
X37100000Y9500000D03*
%TO.N,/FTDI_VPHY*%
X14850000Y19600000D03*
X13950000Y13200000D03*
%TO.N,/FTDI_+1V8*%
X25500000Y23450000D03*
X27750000Y16650000D03*
X15450000Y24450000D03*
%TO.N,/VBUS*%
X8250000Y2700000D03*
X8800000Y11150000D03*
X7550000Y2000000D03*
X7550000Y2700000D03*
X8800000Y15350000D03*
X7550000Y1300000D03*
%TO.N,/USB_D_N*%
X8485000Y13750000D03*
X7485000Y12750000D03*
%TO.N,I2C_1_SCL*%
X22125000Y10775000D03*
X47950000Y22000000D03*
X42800000Y20950000D03*
X37000000Y18700000D03*
X39900000Y8600000D03*
%TO.N,I2C_1_SDA*%
X41000000Y6450000D03*
X42800000Y22150000D03*
X33800000Y17450000D03*
X31800000Y16300000D03*
X23350000Y10550000D03*
X37000000Y17450000D03*
X49100000Y22000000D03*
%TO.N,/LD2*%
X28150000Y3700000D03*
X15100000Y550000D03*
%TO.N,Net-(R5-Pad2)*%
X20350000Y23450000D03*
X16250000Y16200000D03*
%TO.N,Net-(R6-Pad2)*%
X19450000Y23650000D03*
X15700000Y19500000D03*
%TO.N,JTRST*%
X19550000Y13250000D03*
X31600000Y9150000D03*
%TO.N,NRST*%
X20650000Y13250000D03*
X26095984Y6745984D03*
%TO.N,/FRAM_WP*%
X33900000Y19950000D03*
X34650000Y5300000D03*
%TO.N,Net-(TP2-Pad1)*%
X26400000Y25300000D03*
X26300000Y15050000D03*
%TO.N,JTDO*%
X17095878Y14554122D03*
X32150000Y10250000D03*
%TO.N,/FTDI_USER_PB*%
X26250000Y10150000D03*
X21750000Y23450000D03*
%TO.N,Net-(R29-Pad1)*%
X34000000Y16225500D03*
X39800000Y15550000D03*
%TO.N,Net-(U1-Pad12)*%
X15900000Y14100000D03*
X35350000Y12850000D03*
%TO.N,Net-(U1-Pad15)*%
X35350000Y11650000D03*
X17535188Y13920375D03*
%TO.N,Net-(R16-Pad1)*%
X26900000Y16650000D03*
X23269500Y2100000D03*
X28150000Y1100000D03*
%TO.N,Net-(R17-Pad1)*%
X23280500Y1100000D03*
X26300000Y17450000D03*
X28150000Y2050000D03*
%TO.N,Net-(R25-Pad2)*%
X32900000Y10250000D03*
X15900000Y13350000D03*
%TO.N,Net-(R37-Pad1)*%
X46300000Y25650000D03*
X46350000Y22400000D03*
%TD*%
D15*
%TO.N,GND*%
X43750000Y19650000D02*
X43750000Y19000000D01*
X42400000Y24550000D02*
X40500000Y24550000D01*
X43750000Y25450000D02*
X43300000Y25450000D01*
X43750000Y19650000D02*
X43750000Y25450000D01*
X40500000Y24550000D02*
X40450000Y24600000D01*
X43300000Y25450000D02*
X42400000Y24550000D01*
%TO.N,+3V3*%
X45150000Y25450000D02*
X45150000Y20650000D01*
X44650000Y20150000D02*
X45150000Y20650000D01*
X44350000Y20150000D02*
X44650000Y20150000D01*
%TD*%
%TA.AperFunction,Conductor*%
%TO.N,GND*%
G36*
X18915018Y26232187D02*
G01*
X18940328Y26188350D01*
X18935819Y26147182D01*
X18913670Y26093709D01*
X18894750Y25950000D01*
X18913670Y25806291D01*
X18969139Y25672375D01*
X19057379Y25557379D01*
X19172375Y25469139D01*
X19306291Y25413670D01*
X19450000Y25394750D01*
X19454808Y25395383D01*
X19588901Y25413037D01*
X19593709Y25413670D01*
X19727625Y25469139D01*
X19842621Y25557379D01*
X19930861Y25672375D01*
X19986330Y25806291D01*
X20005250Y25950000D01*
X19986330Y26093709D01*
X19964181Y26147182D01*
X19961973Y26197753D01*
X19992788Y26237911D01*
X20032548Y26249500D01*
X37625500Y26249500D01*
X37673066Y26232187D01*
X37698376Y26188350D01*
X37699500Y26175500D01*
X37699500Y25581962D01*
X37698078Y25567525D01*
X37694592Y25550000D01*
X37695658Y25544640D01*
X37712328Y25343469D01*
X37713076Y25340516D01*
X37713077Y25340509D01*
X37761905Y25147692D01*
X37763202Y25142572D01*
X37764431Y25139771D01*
X37764432Y25139767D01*
X37831458Y24986963D01*
X37846449Y24952788D01*
X37921977Y24837183D01*
X37937950Y24812735D01*
X37950000Y24772261D01*
X37950000Y22327739D01*
X37937950Y22287265D01*
X37846449Y22147212D01*
X37845219Y22144408D01*
X37845218Y22144406D01*
X37773481Y21980861D01*
X37763202Y21957428D01*
X37762453Y21954469D01*
X37762451Y21954464D01*
X37713077Y21759491D01*
X37713076Y21759484D01*
X37712328Y21756531D01*
X37695658Y21555360D01*
X37694592Y21550000D01*
X37696014Y21542853D01*
X37698065Y21532541D01*
X37699487Y21518073D01*
X37699012Y20406538D01*
X37698302Y18742401D01*
X37681633Y18696664D01*
X37696512Y18673307D01*
X37698266Y18657261D01*
X37698061Y18177246D01*
X37697770Y17496441D01*
X37680437Y17448882D01*
X37677991Y17447471D01*
X37695976Y17419242D01*
X37697730Y17403195D01*
X37697722Y17383590D01*
X37696300Y17369184D01*
X37692801Y17351592D01*
X37694223Y17344444D01*
X37694223Y17343177D01*
X37694841Y17338708D01*
X37698064Y17297769D01*
X37705346Y17205250D01*
X37709272Y17155365D01*
X37709950Y17152541D01*
X37753273Y16972094D01*
X37755223Y16963970D01*
X37756334Y16961287D01*
X37756336Y16961282D01*
X37797975Y16860759D01*
X37830549Y16782119D01*
X37933396Y16614291D01*
X37935284Y16612081D01*
X37935867Y16611278D01*
X37950000Y16567782D01*
X37950000Y16350000D01*
X38169061Y16350000D01*
X38210711Y16336467D01*
X38210906Y16336785D01*
X38378736Y16233941D01*
X38381428Y16232826D01*
X38557899Y16159730D01*
X38557903Y16159729D01*
X38560587Y16158617D01*
X38751984Y16112669D01*
X38754871Y16112442D01*
X38754876Y16112441D01*
X38935204Y16098250D01*
X38939851Y16097607D01*
X38941064Y16097607D01*
X38948211Y16096186D01*
X38964870Y16099500D01*
X38965695Y16099664D01*
X38980153Y16101086D01*
X39034517Y16101072D01*
X39395775Y16100976D01*
X39443335Y16083651D01*
X39468633Y16039807D01*
X39459830Y15989959D01*
X39440804Y15968269D01*
X39407379Y15942621D01*
X39319139Y15827625D01*
X39263670Y15693709D01*
X39244750Y15550000D01*
X39263670Y15406291D01*
X39319139Y15272375D01*
X39407379Y15157379D01*
X39522375Y15069139D01*
X39656291Y15013670D01*
X39800000Y14994750D01*
X39804808Y14995383D01*
X39938901Y15013037D01*
X39943709Y15013670D01*
X40077625Y15069139D01*
X40192621Y15157379D01*
X40280861Y15272375D01*
X40336330Y15406291D01*
X40355250Y15550000D01*
X40336330Y15693709D01*
X40280861Y15827625D01*
X40192621Y15942621D01*
X40159476Y15968054D01*
X40132280Y16010743D01*
X40138887Y16060929D01*
X40176207Y16095127D01*
X40204546Y16100760D01*
X44200591Y16099699D01*
X44918019Y16099508D01*
X44932434Y16098086D01*
X44950000Y16094592D01*
X44955360Y16095658D01*
X44959644Y16096013D01*
X44959645Y16096013D01*
X44990118Y16098538D01*
X45156531Y16112328D01*
X45159484Y16113076D01*
X45159491Y16113077D01*
X45354464Y16162451D01*
X45354469Y16162453D01*
X45357428Y16163202D01*
X45360229Y16164431D01*
X45360233Y16164432D01*
X45544406Y16245218D01*
X45544408Y16245219D01*
X45547212Y16246449D01*
X45687265Y16337950D01*
X45727739Y16350000D01*
X48172261Y16350000D01*
X48212735Y16337950D01*
X48352788Y16246449D01*
X48355592Y16245219D01*
X48355594Y16245218D01*
X48539767Y16164432D01*
X48539771Y16164431D01*
X48542572Y16163202D01*
X48545531Y16162453D01*
X48545536Y16162451D01*
X48740509Y16113077D01*
X48740516Y16113076D01*
X48743469Y16112328D01*
X48909882Y16098538D01*
X48940355Y16096013D01*
X48940356Y16096013D01*
X48944640Y16095658D01*
X48950000Y16094592D01*
X48967525Y16098078D01*
X48981962Y16099500D01*
X49675500Y16099500D01*
X49723066Y16082187D01*
X49748376Y16038350D01*
X49749500Y16025500D01*
X49749500Y324500D01*
X49732187Y276934D01*
X49688350Y251624D01*
X49675500Y250500D01*
X15682548Y250500D01*
X15634982Y267813D01*
X15609672Y311650D01*
X15614181Y352818D01*
X15634474Y401810D01*
X15636330Y406291D01*
X15655250Y550000D01*
X15636330Y693709D01*
X15580861Y827625D01*
X15492621Y942621D01*
X15377625Y1030861D01*
X15243709Y1086330D01*
X15100000Y1105250D01*
X14956291Y1086330D01*
X14822375Y1030861D01*
X14707379Y942621D01*
X14619139Y827625D01*
X14563670Y693709D01*
X14544750Y550000D01*
X14563670Y406291D01*
X14565526Y401810D01*
X14585819Y352818D01*
X14588027Y302247D01*
X14557212Y262089D01*
X14517452Y250500D01*
X324500Y250500D01*
X276934Y267813D01*
X251624Y311650D01*
X250500Y324500D01*
X250500Y3792834D01*
X745958Y3792834D01*
X754865Y3452690D01*
X802809Y3115824D01*
X889152Y2786700D01*
X889927Y2784713D01*
X889928Y2784709D01*
X967997Y2584474D01*
X1012753Y2469682D01*
X1171971Y2168971D01*
X1173175Y2167219D01*
X1173180Y2167211D01*
X1256911Y2045383D01*
X1364697Y1888553D01*
X1366092Y1886954D01*
X1568941Y1654424D01*
X1588376Y1632145D01*
X1840044Y1403145D01*
X1841771Y1401904D01*
X1841776Y1401900D01*
X2114628Y1205836D01*
X2114633Y1205833D01*
X2116364Y1204589D01*
X2413674Y1039108D01*
X2415649Y1038290D01*
X2415653Y1038288D01*
X2454071Y1022375D01*
X2728035Y908896D01*
X2917348Y854969D01*
X3053223Y816263D01*
X3053229Y816262D01*
X3055278Y815678D01*
X3057387Y815333D01*
X3057390Y815332D01*
X3388963Y761035D01*
X3388969Y761034D01*
X3391066Y760691D01*
X3544472Y753456D01*
X3728823Y744762D01*
X3728828Y744762D01*
X3730949Y744662D01*
X4070422Y767805D01*
X4072506Y768191D01*
X4072512Y768192D01*
X4402884Y829423D01*
X4402891Y829425D01*
X4404986Y829813D01*
X4730205Y929863D01*
X5041769Y1066630D01*
X5043612Y1067707D01*
X5043618Y1067710D01*
X5333708Y1237225D01*
X5333711Y1237227D01*
X5335549Y1238301D01*
X5348720Y1248190D01*
X5417724Y1300000D01*
X6994750Y1300000D01*
X7013670Y1156291D01*
X7069139Y1022375D01*
X7157379Y907379D01*
X7272375Y819139D01*
X7406291Y763670D01*
X7550000Y744750D01*
X7554808Y745383D01*
X7688901Y763037D01*
X7693709Y763670D01*
X7827625Y819139D01*
X7942621Y907379D01*
X8030861Y1022375D01*
X8086330Y1156291D01*
X8105250Y1300000D01*
X8086330Y1443709D01*
X8084474Y1448190D01*
X8032718Y1573143D01*
X8032716Y1573146D01*
X8030861Y1577625D01*
X8020585Y1591017D01*
X8009893Y1604952D01*
X7994671Y1653228D01*
X8009893Y1695048D01*
X8027906Y1718524D01*
X8030861Y1722375D01*
X8032716Y1726854D01*
X8032718Y1726857D01*
X8084474Y1851810D01*
X8086330Y1856291D01*
X8105250Y2000000D01*
X8104528Y2005481D01*
X8095892Y2071082D01*
X8102303Y2100000D01*
X22714250Y2100000D01*
X22733170Y1956291D01*
X22788639Y1822375D01*
X22876879Y1707379D01*
X22937022Y1661230D01*
X22945808Y1654488D01*
X22973006Y1611797D01*
X22966399Y1561611D01*
X22945810Y1537073D01*
X22887879Y1492621D01*
X22799639Y1377625D01*
X22744170Y1243709D01*
X22725250Y1100000D01*
X22744170Y956291D01*
X22799639Y822375D01*
X22887879Y707379D01*
X23002875Y619139D01*
X23136791Y563670D01*
X23280500Y544750D01*
X23285308Y545383D01*
X23419401Y563037D01*
X23424209Y563670D01*
X23558125Y619139D01*
X23673121Y707379D01*
X23761361Y822375D01*
X23816830Y956291D01*
X23835750Y1100000D01*
X27594750Y1100000D01*
X27613670Y956291D01*
X27669139Y822375D01*
X27757379Y707379D01*
X27872375Y619139D01*
X28006291Y563670D01*
X28150000Y544750D01*
X28154808Y545383D01*
X28288901Y563037D01*
X28293709Y563670D01*
X28427625Y619139D01*
X28542621Y707379D01*
X28630861Y822375D01*
X28686330Y956291D01*
X28705250Y1100000D01*
X28686330Y1243709D01*
X28630861Y1377625D01*
X28542621Y1492621D01*
X28511772Y1516293D01*
X28484574Y1558983D01*
X28491181Y1609169D01*
X28511772Y1633708D01*
X28517873Y1638389D01*
X28542621Y1657379D01*
X28630861Y1772375D01*
X28686330Y1906291D01*
X28705250Y2050000D01*
X28686330Y2193709D01*
X28630861Y2327625D01*
X28542621Y2442621D01*
X28427625Y2530861D01*
X28293709Y2586330D01*
X28189877Y2600000D01*
X38194750Y2600000D01*
X38213670Y2456291D01*
X38269139Y2322375D01*
X38357379Y2207379D01*
X38472375Y2119139D01*
X38606291Y2063670D01*
X38750000Y2044750D01*
X38754808Y2045383D01*
X38888901Y2063037D01*
X38893709Y2063670D01*
X39027625Y2119139D01*
X39142621Y2207379D01*
X39230861Y2322375D01*
X39286330Y2456291D01*
X39305250Y2600000D01*
X39286330Y2743709D01*
X39230861Y2877625D01*
X39142621Y2992621D01*
X39027625Y3080861D01*
X38893709Y3136330D01*
X38750000Y3155250D01*
X38606291Y3136330D01*
X38472375Y3080861D01*
X38357379Y2992621D01*
X38269139Y2877625D01*
X38213670Y2743709D01*
X38194750Y2600000D01*
X28189877Y2600000D01*
X28150000Y2605250D01*
X28006291Y2586330D01*
X27872375Y2530861D01*
X27757379Y2442621D01*
X27669139Y2327625D01*
X27613670Y2193709D01*
X27594750Y2050000D01*
X27613670Y1906291D01*
X27669139Y1772375D01*
X27757379Y1657379D01*
X27782128Y1638389D01*
X27788228Y1633708D01*
X27815426Y1591017D01*
X27808819Y1540831D01*
X27788229Y1516293D01*
X27757379Y1492621D01*
X27669139Y1377625D01*
X27613670Y1243709D01*
X27594750Y1100000D01*
X23835750Y1100000D01*
X23816830Y1243709D01*
X23761361Y1377625D01*
X23673121Y1492621D01*
X23604192Y1545513D01*
X23576994Y1588203D01*
X23583601Y1638389D01*
X23604190Y1662927D01*
X23662121Y1707379D01*
X23750361Y1822375D01*
X23805830Y1956291D01*
X23824750Y2100000D01*
X23805830Y2243709D01*
X23750361Y2377625D01*
X23692802Y2452637D01*
X23677580Y2500913D01*
X23696951Y2547679D01*
X23741851Y2571052D01*
X23779828Y2566052D01*
X23906291Y2513670D01*
X24050000Y2494750D01*
X24054808Y2495383D01*
X24188901Y2513037D01*
X24193709Y2513670D01*
X24327625Y2569139D01*
X24442621Y2657379D01*
X24530861Y2772375D01*
X24586330Y2906291D01*
X24605250Y3050000D01*
X24586330Y3193709D01*
X24530861Y3327625D01*
X24442621Y3442621D01*
X24327625Y3530861D01*
X24193709Y3586330D01*
X24050000Y3605250D01*
X23906291Y3586330D01*
X23772375Y3530861D01*
X23657379Y3442621D01*
X23569139Y3327625D01*
X23513670Y3193709D01*
X23494750Y3050000D01*
X23513670Y2906291D01*
X23569139Y2772375D01*
X23594825Y2738901D01*
X23626698Y2697363D01*
X23641920Y2649087D01*
X23622549Y2602321D01*
X23577649Y2578948D01*
X23539672Y2583948D01*
X23417690Y2634474D01*
X23413209Y2636330D01*
X23269500Y2655250D01*
X23125791Y2636330D01*
X22991875Y2580861D01*
X22876879Y2492621D01*
X22788639Y2377625D01*
X22733170Y2243709D01*
X22714250Y2100000D01*
X8102303Y2100000D01*
X8106848Y2120501D01*
X8147007Y2151316D01*
X8178918Y2154108D01*
X8245192Y2145383D01*
X8250000Y2144750D01*
X8254808Y2145383D01*
X8388901Y2163037D01*
X8393709Y2163670D01*
X8527625Y2219139D01*
X8642621Y2307379D01*
X8730861Y2422375D01*
X8786330Y2556291D01*
X8805250Y2700000D01*
X8786330Y2843709D01*
X8730861Y2977625D01*
X8642621Y3092621D01*
X8527625Y3180861D01*
X8393709Y3236330D01*
X8250000Y3255250D01*
X8106291Y3236330D01*
X8101810Y3234474D01*
X7976857Y3182718D01*
X7976854Y3182716D01*
X7972375Y3180861D01*
X7968524Y3177906D01*
X7945048Y3159893D01*
X7896772Y3144671D01*
X7854952Y3159893D01*
X7831476Y3177906D01*
X7827625Y3180861D01*
X7823146Y3182716D01*
X7823143Y3182718D01*
X7698190Y3234474D01*
X7693709Y3236330D01*
X7550000Y3255250D01*
X7406291Y3236330D01*
X7272375Y3180861D01*
X7157379Y3092621D01*
X7069139Y2977625D01*
X7013670Y2843709D01*
X6994750Y2700000D01*
X7013670Y2556291D01*
X7015526Y2551810D01*
X7067282Y2426857D01*
X7067284Y2426854D01*
X7069139Y2422375D01*
X7072093Y2418525D01*
X7072094Y2418524D01*
X7090107Y2395048D01*
X7105329Y2346772D01*
X7090107Y2304952D01*
X7072094Y2281476D01*
X7069139Y2277625D01*
X7067284Y2273146D01*
X7067282Y2273143D01*
X7036236Y2198190D01*
X7013670Y2143709D01*
X6994750Y2000000D01*
X7013670Y1856291D01*
X7015526Y1851810D01*
X7067282Y1726857D01*
X7067284Y1726854D01*
X7069139Y1722375D01*
X7072094Y1718524D01*
X7090107Y1695048D01*
X7105329Y1646772D01*
X7090107Y1604952D01*
X7079415Y1591017D01*
X7069139Y1577625D01*
X7067284Y1573146D01*
X7067282Y1573143D01*
X7015526Y1448190D01*
X7013670Y1443709D01*
X6994750Y1300000D01*
X5417724Y1300000D01*
X5605947Y1441322D01*
X5605951Y1441325D01*
X5607650Y1442601D01*
X5854467Y1676821D01*
X5938112Y1776859D01*
X6071354Y1936214D01*
X6071360Y1936222D01*
X6072727Y1937857D01*
X6081893Y1951810D01*
X6154955Y2063037D01*
X6259538Y2222250D01*
X6412424Y2526229D01*
X6529358Y2845767D01*
X6537007Y2877625D01*
X6604773Y3159893D01*
X6608790Y3176626D01*
X6649668Y3514423D01*
X6651135Y3561099D01*
X6655448Y3698337D01*
X6655448Y3698343D01*
X6655500Y3700000D01*
X27594750Y3700000D01*
X27613670Y3556291D01*
X27669139Y3422375D01*
X27757379Y3307379D01*
X27872375Y3219139D01*
X28006291Y3163670D01*
X28150000Y3144750D01*
X28154808Y3145383D01*
X28288901Y3163037D01*
X28293709Y3163670D01*
X28427625Y3219139D01*
X28542621Y3307379D01*
X28630861Y3422375D01*
X28686330Y3556291D01*
X28704307Y3692834D01*
X43445958Y3692834D01*
X43454865Y3352690D01*
X43502809Y3015824D01*
X43589152Y2686700D01*
X43589927Y2684713D01*
X43589928Y2684709D01*
X43650934Y2528238D01*
X43712753Y2369682D01*
X43871971Y2068971D01*
X43873175Y2067219D01*
X43873180Y2067211D01*
X43960857Y1939641D01*
X44064697Y1788553D01*
X44066092Y1786954D01*
X44280799Y1540831D01*
X44288376Y1532145D01*
X44540044Y1303145D01*
X44541771Y1301904D01*
X44541776Y1301900D01*
X44814628Y1105836D01*
X44814633Y1105833D01*
X44816364Y1104589D01*
X45113674Y939108D01*
X45115649Y938290D01*
X45115653Y938288D01*
X45188022Y908312D01*
X45428035Y808896D01*
X45617348Y754969D01*
X45753223Y716263D01*
X45753229Y716262D01*
X45755278Y715678D01*
X45757387Y715333D01*
X45757390Y715332D01*
X46088963Y661035D01*
X46088969Y661034D01*
X46091066Y660691D01*
X46244472Y653456D01*
X46428823Y644762D01*
X46428828Y644762D01*
X46430949Y644662D01*
X46770422Y667805D01*
X46772506Y668191D01*
X46772512Y668192D01*
X47102884Y729423D01*
X47102891Y729425D01*
X47104986Y729813D01*
X47430205Y829863D01*
X47741769Y966630D01*
X47743612Y967707D01*
X47743618Y967710D01*
X48033708Y1137225D01*
X48033711Y1137227D01*
X48035549Y1138301D01*
X48053541Y1151810D01*
X48305947Y1341322D01*
X48305951Y1341325D01*
X48307650Y1342601D01*
X48554467Y1576821D01*
X48661162Y1704427D01*
X48771354Y1836214D01*
X48771360Y1836222D01*
X48772727Y1837857D01*
X48781893Y1851810D01*
X48853682Y1961099D01*
X48959538Y2122250D01*
X49112424Y2426229D01*
X49229358Y2745767D01*
X49251718Y2838901D01*
X49274732Y2934764D01*
X49308790Y3076626D01*
X49349668Y3414423D01*
X49352863Y3516074D01*
X49355448Y3598337D01*
X49355448Y3598343D01*
X49355500Y3600000D01*
X49335913Y3939697D01*
X49284032Y4236963D01*
X49277777Y4272801D01*
X49277776Y4272805D01*
X49277412Y4274891D01*
X49180773Y4601140D01*
X49047276Y4914119D01*
X48878691Y5209681D01*
X48677252Y5483907D01*
X48486881Y5688770D01*
X48447085Y5731596D01*
X48447078Y5731603D01*
X48445629Y5733162D01*
X48186893Y5954144D01*
X48185127Y5955331D01*
X48185120Y5955336D01*
X47906243Y6142733D01*
X47906242Y6142733D01*
X47904472Y6143923D01*
X47902584Y6144898D01*
X47902578Y6144901D01*
X47743787Y6226859D01*
X47602110Y6299984D01*
X47283815Y6420257D01*
X47107641Y6464509D01*
X46955864Y6502633D01*
X46955861Y6502634D01*
X46953805Y6503150D01*
X46951702Y6503427D01*
X46951696Y6503428D01*
X46618563Y6547286D01*
X46618554Y6547287D01*
X46616455Y6547563D01*
X46461905Y6549991D01*
X46278367Y6552875D01*
X46278359Y6552875D01*
X46276237Y6552908D01*
X45937658Y6519113D01*
X45605207Y6446627D01*
X45603199Y6445940D01*
X45603190Y6445937D01*
X45466123Y6399008D01*
X45283292Y6336411D01*
X45281356Y6335488D01*
X45281357Y6335488D01*
X44978096Y6190840D01*
X44978087Y6190835D01*
X44976177Y6189924D01*
X44974380Y6188797D01*
X44974375Y6188794D01*
X44689749Y6010249D01*
X44689744Y6010245D01*
X44687934Y6009110D01*
X44422384Y5796365D01*
X44420895Y5794860D01*
X44420888Y5794854D01*
X44210441Y5582190D01*
X44183047Y5554507D01*
X44181736Y5552835D01*
X44127690Y5483907D01*
X43973094Y5286744D01*
X43971981Y5284927D01*
X43796425Y4998448D01*
X43796420Y4998438D01*
X43795308Y4996624D01*
X43794411Y4994692D01*
X43794408Y4994686D01*
X43652945Y4689929D01*
X43652046Y4687992D01*
X43545206Y4364940D01*
X43476206Y4031748D01*
X43476017Y4029626D01*
X43476016Y4029622D01*
X43470975Y3973141D01*
X43445958Y3692834D01*
X28704307Y3692834D01*
X28705250Y3700000D01*
X28686330Y3843709D01*
X28630861Y3977625D01*
X28542621Y4092621D01*
X28427625Y4180861D01*
X28293709Y4236330D01*
X28150000Y4255250D01*
X28006291Y4236330D01*
X27872375Y4180861D01*
X27757379Y4092621D01*
X27669139Y3977625D01*
X27613670Y3843709D01*
X27594750Y3700000D01*
X6655500Y3700000D01*
X6635913Y4039697D01*
X6577412Y4374891D01*
X6480773Y4701140D01*
X6347276Y5014119D01*
X6184213Y5300000D01*
X34094750Y5300000D01*
X34113670Y5156291D01*
X34169139Y5022375D01*
X34257379Y4907379D01*
X34372375Y4819139D01*
X34506291Y4763670D01*
X34650000Y4744750D01*
X34654808Y4745383D01*
X34788901Y4763037D01*
X34793709Y4763670D01*
X34927625Y4819139D01*
X35042621Y4907379D01*
X35130861Y5022375D01*
X35186330Y5156291D01*
X35205250Y5300000D01*
X35186330Y5443709D01*
X35130861Y5577625D01*
X35042621Y5692621D01*
X34927625Y5780861D01*
X34793709Y5836330D01*
X34650000Y5855250D01*
X34506291Y5836330D01*
X34372375Y5780861D01*
X34257379Y5692621D01*
X34169139Y5577625D01*
X34113670Y5443709D01*
X34094750Y5300000D01*
X6184213Y5300000D01*
X6178691Y5309681D01*
X5977252Y5583907D01*
X5872896Y5696207D01*
X5747085Y5831596D01*
X5747078Y5831603D01*
X5745629Y5833162D01*
X5486893Y6054144D01*
X5485127Y6055331D01*
X5485120Y6055336D01*
X5206243Y6242733D01*
X5206242Y6242733D01*
X5204472Y6243923D01*
X5202584Y6244898D01*
X5202578Y6244901D01*
X5025280Y6336411D01*
X4902110Y6399984D01*
X4583815Y6520257D01*
X4423059Y6560636D01*
X4255864Y6602633D01*
X4255861Y6602634D01*
X4253805Y6603150D01*
X4251702Y6603427D01*
X4251696Y6603428D01*
X3918563Y6647286D01*
X3918554Y6647287D01*
X3916455Y6647563D01*
X3761905Y6649991D01*
X3578367Y6652875D01*
X3578359Y6652875D01*
X3576237Y6652908D01*
X3237658Y6619113D01*
X2905207Y6546627D01*
X2903199Y6545940D01*
X2903190Y6545937D01*
X2754977Y6495192D01*
X2583292Y6436411D01*
X2581356Y6435488D01*
X2581357Y6435488D01*
X2278096Y6290840D01*
X2278087Y6290835D01*
X2276177Y6289924D01*
X2274380Y6288797D01*
X2274375Y6288794D01*
X1989749Y6110249D01*
X1989744Y6110245D01*
X1987934Y6109110D01*
X1722384Y5896365D01*
X1720895Y5894860D01*
X1720888Y5894854D01*
X1516953Y5688770D01*
X1483047Y5654507D01*
X1481736Y5652835D01*
X1349280Y5483907D01*
X1273094Y5386744D01*
X1219937Y5300000D01*
X1096425Y5098448D01*
X1096420Y5098438D01*
X1095308Y5096624D01*
X1094411Y5094692D01*
X1094408Y5094686D01*
X966504Y4819139D01*
X952046Y4787992D01*
X951377Y4785969D01*
X951375Y4785964D01*
X918974Y4687992D01*
X845206Y4464940D01*
X776206Y4131748D01*
X776017Y4129626D01*
X776016Y4129622D01*
X762050Y3973141D01*
X745958Y3792834D01*
X250500Y3792834D01*
X250500Y6745984D01*
X25540734Y6745984D01*
X25559654Y6602275D01*
X25615123Y6468359D01*
X25703363Y6353363D01*
X25818359Y6265123D01*
X25952275Y6209654D01*
X26095984Y6190734D01*
X26100792Y6191367D01*
X26234885Y6209021D01*
X26239693Y6209654D01*
X26373609Y6265123D01*
X26488605Y6353363D01*
X26576845Y6468359D01*
X26589951Y6500000D01*
X36544750Y6500000D01*
X36563670Y6356291D01*
X36619139Y6222375D01*
X36707379Y6107379D01*
X36822375Y6019139D01*
X36956291Y5963670D01*
X37100000Y5944750D01*
X37104808Y5945383D01*
X37238901Y5963037D01*
X37243709Y5963670D01*
X37377625Y6019139D01*
X37492621Y6107379D01*
X37580861Y6222375D01*
X37636330Y6356291D01*
X37648667Y6450000D01*
X40444750Y6450000D01*
X40463670Y6306291D01*
X40519139Y6172375D01*
X40607379Y6057379D01*
X40722375Y5969139D01*
X40856291Y5913670D01*
X41000000Y5894750D01*
X41004808Y5895383D01*
X41138901Y5913037D01*
X41143709Y5913670D01*
X41277625Y5969139D01*
X41392621Y6057379D01*
X41480861Y6172375D01*
X41536330Y6306291D01*
X41555250Y6450000D01*
X41536330Y6593709D01*
X41532420Y6603150D01*
X41514010Y6647596D01*
X41480861Y6727625D01*
X41392621Y6842621D01*
X41277625Y6930861D01*
X41143709Y6986330D01*
X41000000Y7005250D01*
X40856291Y6986330D01*
X40722375Y6930861D01*
X40607379Y6842621D01*
X40519139Y6727625D01*
X40485990Y6647596D01*
X40467581Y6603150D01*
X40463670Y6593709D01*
X40444750Y6450000D01*
X37648667Y6450000D01*
X37655250Y6500000D01*
X37636330Y6643709D01*
X37580861Y6777625D01*
X37492621Y6892621D01*
X37377625Y6980861D01*
X37243709Y7036330D01*
X37100000Y7055250D01*
X36956291Y7036330D01*
X36822375Y6980861D01*
X36707379Y6892621D01*
X36619139Y6777625D01*
X36563670Y6643709D01*
X36544750Y6500000D01*
X26589951Y6500000D01*
X26632314Y6602275D01*
X26651234Y6745984D01*
X26632314Y6889693D01*
X26576845Y7023609D01*
X26488605Y7138605D01*
X26373609Y7226845D01*
X26239693Y7282314D01*
X26095984Y7301234D01*
X25952275Y7282314D01*
X25818359Y7226845D01*
X25703363Y7138605D01*
X25615123Y7023609D01*
X25559654Y6889693D01*
X25540734Y6745984D01*
X250500Y6745984D01*
X250500Y8324273D01*
X267813Y8371839D01*
X311650Y8397149D01*
X361500Y8388359D01*
X372411Y8380670D01*
X465755Y8301368D01*
X621616Y8221781D01*
X791606Y8180185D01*
X802648Y8179500D01*
X1928822Y8179500D01*
X1930947Y8179748D01*
X1930951Y8179748D01*
X2054557Y8194159D01*
X2058828Y8194657D01*
X2062869Y8196124D01*
X2062870Y8196124D01*
X2219285Y8252900D01*
X2219288Y8252901D01*
X2223331Y8254369D01*
X2369685Y8350323D01*
X2430647Y8414676D01*
X2487085Y8474252D01*
X2487087Y8474255D01*
X2490040Y8477372D01*
X2577939Y8628702D01*
X2628667Y8796193D01*
X2633441Y8873141D01*
X2637306Y8935448D01*
X4259612Y8935448D01*
X4277798Y8762419D01*
X4285804Y8738901D01*
X4331454Y8604808D01*
X4333867Y8597719D01*
X4425031Y8449533D01*
X4546760Y8325228D01*
X4550239Y8322986D01*
X4689526Y8233221D01*
X4689529Y8233220D01*
X4693004Y8230980D01*
X4696893Y8229565D01*
X4696894Y8229564D01*
X4852604Y8172890D01*
X4852608Y8172889D01*
X4856493Y8171475D01*
X4860597Y8170957D01*
X4860599Y8170956D01*
X4924035Y8162942D01*
X4990863Y8154500D01*
X6133746Y8154500D01*
X6262898Y8168987D01*
X6266802Y8170347D01*
X6266804Y8170347D01*
X6364659Y8204424D01*
X6427203Y8226204D01*
X6472277Y8254369D01*
X6571239Y8316207D01*
X6571241Y8316209D01*
X6574748Y8318400D01*
X6698201Y8440994D01*
X6723644Y8481085D01*
X6789207Y8584397D01*
X6791425Y8587892D01*
X6849788Y8751793D01*
X6870388Y8924552D01*
X6866082Y8965526D01*
X6852634Y9093472D01*
X6852634Y9093473D01*
X6852202Y9097581D01*
X6834357Y9150000D01*
X31044750Y9150000D01*
X31063670Y9006291D01*
X31119139Y8872375D01*
X31207379Y8757379D01*
X31322375Y8669139D01*
X31456291Y8613670D01*
X31600000Y8594750D01*
X31604808Y8595383D01*
X31639877Y8600000D01*
X39344750Y8600000D01*
X39363670Y8456291D01*
X39419139Y8322375D01*
X39507379Y8207379D01*
X39622375Y8119139D01*
X39756291Y8063670D01*
X39900000Y8044750D01*
X39904808Y8045383D01*
X40038901Y8063037D01*
X40043709Y8063670D01*
X40177625Y8119139D01*
X40292621Y8207379D01*
X40380861Y8322375D01*
X40436330Y8456291D01*
X40455250Y8600000D01*
X40436330Y8743709D01*
X40380861Y8877625D01*
X40292621Y8992621D01*
X40177625Y9080861D01*
X40043709Y9136330D01*
X39900000Y9155250D01*
X39756291Y9136330D01*
X39622375Y9080861D01*
X39507379Y8992621D01*
X39419139Y8877625D01*
X39363670Y8743709D01*
X39344750Y8600000D01*
X31639877Y8600000D01*
X31738901Y8613037D01*
X31743709Y8613670D01*
X31877625Y8669139D01*
X31992621Y8757379D01*
X32080861Y8872375D01*
X32136330Y9006291D01*
X32155250Y9150000D01*
X32136330Y9293709D01*
X32080861Y9427625D01*
X32025325Y9500000D01*
X36544750Y9500000D01*
X36563670Y9356291D01*
X36619139Y9222375D01*
X36707379Y9107379D01*
X36822375Y9019139D01*
X36928689Y8975103D01*
X36949295Y8966568D01*
X36956291Y8963670D01*
X37100000Y8944750D01*
X37104808Y8945383D01*
X37238901Y8963037D01*
X37243709Y8963670D01*
X37250706Y8966568D01*
X37271311Y8975103D01*
X37377625Y9019139D01*
X37492621Y9107379D01*
X37580861Y9222375D01*
X37636330Y9356291D01*
X37655250Y9500000D01*
X37636330Y9643709D01*
X37580861Y9777625D01*
X37492621Y9892621D01*
X37377625Y9980861D01*
X37243709Y10036330D01*
X37100000Y10055250D01*
X36956291Y10036330D01*
X36822375Y9980861D01*
X36707379Y9892621D01*
X36619139Y9777625D01*
X36563670Y9643709D01*
X36544750Y9500000D01*
X32025325Y9500000D01*
X31992621Y9542621D01*
X31936594Y9585613D01*
X31909397Y9628304D01*
X31916004Y9678490D01*
X31953325Y9712687D01*
X32000799Y9715798D01*
X32001803Y9715529D01*
X32006291Y9713670D01*
X32011101Y9713037D01*
X32011104Y9713036D01*
X32145192Y9695383D01*
X32150000Y9694750D01*
X32154808Y9695383D01*
X32288901Y9713037D01*
X32293709Y9713670D01*
X32312637Y9721510D01*
X32423143Y9767282D01*
X32423146Y9767284D01*
X32427625Y9769139D01*
X32431581Y9772175D01*
X32479952Y9809290D01*
X32528228Y9824512D01*
X32570048Y9809290D01*
X32618419Y9772175D01*
X32622375Y9769139D01*
X32626854Y9767284D01*
X32626857Y9767282D01*
X32737363Y9721510D01*
X32756291Y9713670D01*
X32900000Y9694750D01*
X32904808Y9695383D01*
X33038901Y9713037D01*
X33043709Y9713670D01*
X33065783Y9722813D01*
X33149233Y9757379D01*
X33177625Y9769139D01*
X33292621Y9857379D01*
X33380861Y9972375D01*
X33436330Y10106291D01*
X33455250Y10250000D01*
X33442085Y10350000D01*
X40619250Y10350000D01*
X40638170Y10206291D01*
X40693639Y10072375D01*
X40781879Y9957379D01*
X40896875Y9869139D01*
X41030791Y9813670D01*
X41174500Y9794750D01*
X41179308Y9795383D01*
X41313401Y9813037D01*
X41318209Y9813670D01*
X41452125Y9869139D01*
X41567121Y9957379D01*
X41655361Y10072375D01*
X41710830Y10206291D01*
X41729750Y10350000D01*
X41710830Y10493709D01*
X41655361Y10627625D01*
X41567121Y10742621D01*
X41452125Y10830861D01*
X41318209Y10886330D01*
X41174500Y10905250D01*
X41030791Y10886330D01*
X40896875Y10830861D01*
X40781879Y10742621D01*
X40693639Y10627625D01*
X40638170Y10493709D01*
X40619250Y10350000D01*
X33442085Y10350000D01*
X33436330Y10393709D01*
X33380861Y10527625D01*
X33292621Y10642621D01*
X33177625Y10730861D01*
X33043709Y10786330D01*
X32900000Y10805250D01*
X32756291Y10786330D01*
X32751810Y10784474D01*
X32626857Y10732718D01*
X32626854Y10732716D01*
X32622375Y10730861D01*
X32618524Y10727906D01*
X32570048Y10690710D01*
X32521772Y10675488D01*
X32479952Y10690710D01*
X32431476Y10727906D01*
X32427625Y10730861D01*
X32423146Y10732716D01*
X32423143Y10732718D01*
X32298190Y10784474D01*
X32293709Y10786330D01*
X32150000Y10805250D01*
X32006291Y10786330D01*
X31872375Y10730861D01*
X31757379Y10642621D01*
X31669139Y10527625D01*
X31613670Y10393709D01*
X31594750Y10250000D01*
X31613670Y10106291D01*
X31669139Y9972375D01*
X31757379Y9857379D01*
X31811923Y9815526D01*
X31813406Y9814388D01*
X31840603Y9771696D01*
X31833996Y9721510D01*
X31796675Y9687313D01*
X31749201Y9684202D01*
X31748197Y9684471D01*
X31743709Y9686330D01*
X31738899Y9686963D01*
X31738896Y9686964D01*
X31604808Y9704617D01*
X31600000Y9705250D01*
X31456291Y9686330D01*
X31322375Y9630861D01*
X31207379Y9542621D01*
X31119139Y9427625D01*
X31063670Y9293709D01*
X31044750Y9150000D01*
X6834357Y9150000D01*
X6796133Y9262281D01*
X6704969Y9410467D01*
X6622000Y9495192D01*
X6586135Y9531816D01*
X6586134Y9531817D01*
X6583240Y9534772D01*
X6546217Y9558632D01*
X6440474Y9626779D01*
X6440471Y9626780D01*
X6436996Y9629020D01*
X6426836Y9632718D01*
X6277396Y9687110D01*
X6277392Y9687111D01*
X6273507Y9688525D01*
X6269403Y9689043D01*
X6269401Y9689044D01*
X6205965Y9697058D01*
X6139137Y9705500D01*
X5360774Y9705500D01*
X5313208Y9722813D01*
X5287898Y9766650D01*
X5296688Y9816500D01*
X5332455Y9847867D01*
X5355233Y9857302D01*
X5475451Y9949549D01*
X5567698Y10069767D01*
X5625687Y10209764D01*
X5629410Y10238037D01*
X5644833Y10355192D01*
X5645466Y10360000D01*
X5636056Y10431475D01*
X5626320Y10505431D01*
X5626319Y10505434D01*
X5625687Y10510236D01*
X5567698Y10650233D01*
X5475451Y10770451D01*
X5355233Y10862698D01*
X5215236Y10920687D01*
X5210434Y10921319D01*
X5210431Y10921320D01*
X5127820Y10932195D01*
X5102720Y10935500D01*
X5027280Y10935500D01*
X5002180Y10932195D01*
X4919569Y10921320D01*
X4919566Y10921319D01*
X4914764Y10920687D01*
X4774767Y10862698D01*
X4654549Y10770451D01*
X4562302Y10650233D01*
X4504313Y10510236D01*
X4503681Y10505434D01*
X4503680Y10505431D01*
X4493944Y10431475D01*
X4484534Y10360000D01*
X4485167Y10355192D01*
X4500591Y10238037D01*
X4504313Y10209764D01*
X4562302Y10069767D01*
X4654549Y9949549D01*
X4774767Y9857302D01*
X4853929Y9824512D01*
X4855532Y9823848D01*
X4892852Y9789650D01*
X4899459Y9739464D01*
X4872261Y9696773D01*
X4851549Y9685597D01*
X4834946Y9679815D01*
X4702797Y9633796D01*
X4699293Y9631607D01*
X4699292Y9631606D01*
X4558761Y9543793D01*
X4558759Y9543791D01*
X4555252Y9541600D01*
X4431799Y9419006D01*
X4338575Y9272108D01*
X4280212Y9108207D01*
X4259612Y8935448D01*
X2637306Y8935448D01*
X2639237Y8966568D01*
X2639237Y8966571D01*
X2639503Y8970862D01*
X2609866Y9143340D01*
X2541346Y9304373D01*
X2506436Y9351810D01*
X2440163Y9441865D01*
X2440161Y9441867D01*
X2437617Y9445324D01*
X2304245Y9558632D01*
X2148384Y9638219D01*
X1978394Y9679815D01*
X1967352Y9680500D01*
X841178Y9680500D01*
X839053Y9680252D01*
X839049Y9680252D01*
X743731Y9669139D01*
X711172Y9665343D01*
X707131Y9663876D01*
X707130Y9663876D01*
X550715Y9607100D01*
X550712Y9607099D01*
X546669Y9605631D01*
X400315Y9509677D01*
X397356Y9506553D01*
X378222Y9486355D01*
X332941Y9463729D01*
X283711Y9475503D01*
X253566Y9516167D01*
X250500Y9537246D01*
X250500Y11150000D01*
X8244750Y11150000D01*
X8263670Y11006291D01*
X8319139Y10872375D01*
X8407379Y10757379D01*
X8522375Y10669139D01*
X8656291Y10613670D01*
X8800000Y10594750D01*
X8804808Y10595383D01*
X8938901Y10613037D01*
X8943709Y10613670D01*
X9077625Y10669139D01*
X9192621Y10757379D01*
X9280861Y10872375D01*
X9336330Y11006291D01*
X9355250Y11150000D01*
X9342085Y11250000D01*
X10744750Y11250000D01*
X10763670Y11106291D01*
X10819139Y10972375D01*
X10907379Y10857379D01*
X11022375Y10769139D01*
X11156291Y10713670D01*
X11300000Y10694750D01*
X11304808Y10695383D01*
X11438901Y10713037D01*
X11443709Y10713670D01*
X11577625Y10769139D01*
X11585263Y10775000D01*
X21569750Y10775000D01*
X21588670Y10631291D01*
X21590526Y10626810D01*
X21595200Y10615526D01*
X21644139Y10497375D01*
X21732379Y10382379D01*
X21847375Y10294139D01*
X21981291Y10238670D01*
X22125000Y10219750D01*
X22129808Y10220383D01*
X22263901Y10238037D01*
X22268709Y10238670D01*
X22402625Y10294139D01*
X22517621Y10382379D01*
X22605861Y10497375D01*
X22644435Y10590502D01*
X22657502Y10622048D01*
X22691699Y10659369D01*
X22705385Y10661171D01*
X22749427Y10661171D01*
X22784577Y10638778D01*
X22799799Y10590502D01*
X22799237Y10584082D01*
X22794750Y10550000D01*
X22813670Y10406291D01*
X22869139Y10272375D01*
X22957379Y10157379D01*
X23072375Y10069139D01*
X23206291Y10013670D01*
X23350000Y9994750D01*
X23354808Y9995383D01*
X23488901Y10013037D01*
X23493709Y10013670D01*
X23627625Y10069139D01*
X23733005Y10150000D01*
X25694750Y10150000D01*
X25713670Y10006291D01*
X25769139Y9872375D01*
X25857379Y9757379D01*
X25972375Y9669139D01*
X26106291Y9613670D01*
X26250000Y9594750D01*
X26254808Y9595383D01*
X26388901Y9613037D01*
X26393709Y9613670D01*
X26527625Y9669139D01*
X26642621Y9757379D01*
X26730861Y9872375D01*
X26786330Y10006291D01*
X26805250Y10150000D01*
X26786330Y10293709D01*
X26730861Y10427625D01*
X26642621Y10542621D01*
X26527625Y10630861D01*
X26393709Y10686330D01*
X26250000Y10705250D01*
X26106291Y10686330D01*
X25972375Y10630861D01*
X25857379Y10542621D01*
X25800523Y10468525D01*
X25770551Y10429465D01*
X25757938Y10421430D01*
X25758732Y10403233D01*
X25756531Y10397186D01*
X25713670Y10293709D01*
X25694750Y10150000D01*
X23733005Y10150000D01*
X23742621Y10157379D01*
X23830861Y10272375D01*
X23886330Y10406291D01*
X23905250Y10550000D01*
X23886330Y10693709D01*
X23882502Y10702952D01*
X23863014Y10750000D01*
X24594750Y10750000D01*
X24595383Y10745192D01*
X24608475Y10645754D01*
X24613670Y10606291D01*
X24669139Y10472375D01*
X24757379Y10357379D01*
X24872375Y10269139D01*
X25006291Y10213670D01*
X25150000Y10194750D01*
X25154808Y10195383D01*
X25288901Y10213037D01*
X25293709Y10213670D01*
X25427625Y10269139D01*
X25542621Y10357379D01*
X25629449Y10470535D01*
X25642062Y10478570D01*
X25641268Y10496767D01*
X25643469Y10502814D01*
X25686330Y10606291D01*
X25691526Y10645754D01*
X25704617Y10745192D01*
X25705250Y10750000D01*
X25686330Y10893709D01*
X25630861Y11027625D01*
X25542621Y11142621D01*
X25427625Y11230861D01*
X25293709Y11286330D01*
X25150000Y11305250D01*
X25006291Y11286330D01*
X24872375Y11230861D01*
X24757379Y11142621D01*
X24669139Y11027625D01*
X24613670Y10893709D01*
X24594750Y10750000D01*
X23863014Y10750000D01*
X23856138Y10766600D01*
X23830861Y10827625D01*
X23742621Y10942621D01*
X23627625Y11030861D01*
X23493709Y11086330D01*
X23350000Y11105250D01*
X23206291Y11086330D01*
X23072375Y11030861D01*
X22957379Y10942621D01*
X22869139Y10827625D01*
X22852034Y10786330D01*
X22817498Y10702952D01*
X22783301Y10665631D01*
X22749427Y10661171D01*
X22705385Y10661171D01*
X22725573Y10663829D01*
X22690423Y10686222D01*
X22675201Y10734498D01*
X22675763Y10740918D01*
X22680250Y10775000D01*
X22661330Y10918709D01*
X22605861Y11052625D01*
X22517621Y11167621D01*
X22402625Y11255861D01*
X22268709Y11311330D01*
X22125000Y11330250D01*
X21981291Y11311330D01*
X21847375Y11255861D01*
X21732379Y11167621D01*
X21644139Y11052625D01*
X21588670Y10918709D01*
X21569750Y10775000D01*
X11585263Y10775000D01*
X11692621Y10857379D01*
X11780861Y10972375D01*
X11836330Y11106291D01*
X11855250Y11250000D01*
X11850384Y11286963D01*
X11838311Y11378663D01*
X11849267Y11428082D01*
X11889426Y11458897D01*
X11921337Y11461689D01*
X12045192Y11445383D01*
X12050000Y11444750D01*
X12054808Y11445383D01*
X12188901Y11463037D01*
X12193709Y11463670D01*
X12327625Y11519139D01*
X12442621Y11607379D01*
X12475325Y11650000D01*
X34794750Y11650000D01*
X34813670Y11506291D01*
X34869139Y11372375D01*
X34957379Y11257379D01*
X35072375Y11169139D01*
X35206291Y11113670D01*
X35350000Y11094750D01*
X35354808Y11095383D01*
X35488901Y11113037D01*
X35493709Y11113670D01*
X35627625Y11169139D01*
X35742621Y11257379D01*
X35830861Y11372375D01*
X35886330Y11506291D01*
X35905250Y11650000D01*
X35886330Y11793709D01*
X35830861Y11927625D01*
X35742621Y12042621D01*
X35627625Y12130861D01*
X35505049Y12181633D01*
X35467728Y12215830D01*
X35461121Y12266016D01*
X35488318Y12308708D01*
X35505049Y12318367D01*
X35599233Y12357379D01*
X35627625Y12369139D01*
X35742621Y12457379D01*
X35830861Y12572375D01*
X35886330Y12706291D01*
X35905250Y12850000D01*
X35886330Y12993709D01*
X35830861Y13127625D01*
X35742621Y13242621D01*
X35733005Y13250000D01*
X37944750Y13250000D01*
X37963670Y13106291D01*
X38019139Y12972375D01*
X38107379Y12857379D01*
X38222375Y12769139D01*
X38356291Y12713670D01*
X38500000Y12694750D01*
X38504808Y12695383D01*
X38638901Y12713037D01*
X38643709Y12713670D01*
X38777625Y12769139D01*
X38892621Y12857379D01*
X38980861Y12972375D01*
X39036330Y13106291D01*
X39055250Y13250000D01*
X39036330Y13393709D01*
X38980861Y13527625D01*
X38892621Y13642621D01*
X38777625Y13730861D01*
X38643709Y13786330D01*
X38500000Y13805250D01*
X38356291Y13786330D01*
X38222375Y13730861D01*
X38107379Y13642621D01*
X38019139Y13527625D01*
X37963670Y13393709D01*
X37944750Y13250000D01*
X35733005Y13250000D01*
X35627625Y13330861D01*
X35493709Y13386330D01*
X35350000Y13405250D01*
X35206291Y13386330D01*
X35072375Y13330861D01*
X34957379Y13242621D01*
X34869139Y13127625D01*
X34813670Y12993709D01*
X34794750Y12850000D01*
X34813670Y12706291D01*
X34869139Y12572375D01*
X34957379Y12457379D01*
X35072375Y12369139D01*
X35100767Y12357379D01*
X35194951Y12318367D01*
X35232272Y12284170D01*
X35238879Y12233984D01*
X35211682Y12191292D01*
X35194950Y12181633D01*
X35072375Y12130861D01*
X34957379Y12042621D01*
X34869139Y11927625D01*
X34813670Y11793709D01*
X34794750Y11650000D01*
X12475325Y11650000D01*
X12530861Y11722375D01*
X12586330Y11856291D01*
X12605250Y12000000D01*
X12586330Y12143709D01*
X12530861Y12277625D01*
X12442621Y12392621D01*
X12327625Y12480861D01*
X12193709Y12536330D01*
X12050000Y12555250D01*
X11906291Y12536330D01*
X11901810Y12534474D01*
X11776857Y12482718D01*
X11776854Y12482716D01*
X11772375Y12480861D01*
X11768524Y12477906D01*
X11720048Y12440710D01*
X11671772Y12425488D01*
X11629952Y12440710D01*
X11581476Y12477906D01*
X11577625Y12480861D01*
X11573146Y12482716D01*
X11573143Y12482718D01*
X11448190Y12534474D01*
X11443709Y12536330D01*
X11300000Y12555250D01*
X11156291Y12536330D01*
X11022375Y12480861D01*
X10907379Y12392621D01*
X10819139Y12277625D01*
X10763670Y12143709D01*
X10744750Y12000000D01*
X10763670Y11856291D01*
X10765526Y11851810D01*
X10817282Y11726857D01*
X10817284Y11726854D01*
X10819139Y11722375D01*
X10822093Y11718525D01*
X10822094Y11718524D01*
X10859290Y11670048D01*
X10874512Y11621772D01*
X10859290Y11579952D01*
X10832913Y11545576D01*
X10819139Y11527625D01*
X10817284Y11523146D01*
X10817282Y11523143D01*
X10777718Y11427625D01*
X10763670Y11393709D01*
X10744750Y11250000D01*
X9342085Y11250000D01*
X9336330Y11293709D01*
X9280861Y11427625D01*
X9192621Y11542621D01*
X9077625Y11630861D01*
X8943709Y11686330D01*
X8800000Y11705250D01*
X8656291Y11686330D01*
X8522375Y11630861D01*
X8407379Y11542621D01*
X8319139Y11427625D01*
X8263670Y11293709D01*
X8244750Y11150000D01*
X250500Y11150000D01*
X250500Y12750000D01*
X6929750Y12750000D01*
X6948670Y12606291D01*
X7004139Y12472375D01*
X7092379Y12357379D01*
X7207375Y12269139D01*
X7341291Y12213670D01*
X7485000Y12194750D01*
X7489808Y12195383D01*
X7623901Y12213037D01*
X7628709Y12213670D01*
X7762625Y12269139D01*
X7877621Y12357379D01*
X7965861Y12472375D01*
X8021330Y12606291D01*
X8040250Y12750000D01*
X8021330Y12893709D01*
X7965861Y13027625D01*
X7877621Y13142621D01*
X7762625Y13230861D01*
X7628709Y13286330D01*
X7485000Y13305250D01*
X7341291Y13286330D01*
X7207375Y13230861D01*
X7092379Y13142621D01*
X7004139Y13027625D01*
X6948670Y12893709D01*
X6929750Y12750000D01*
X250500Y12750000D01*
X250500Y13750000D01*
X7929750Y13750000D01*
X7948670Y13606291D01*
X8004139Y13472375D01*
X8092379Y13357379D01*
X8207375Y13269139D01*
X8341291Y13213670D01*
X8485000Y13194750D01*
X8489808Y13195383D01*
X8524877Y13200000D01*
X13394750Y13200000D01*
X13413670Y13056291D01*
X13469139Y12922375D01*
X13557379Y12807379D01*
X13672375Y12719139D01*
X13806291Y12663670D01*
X13950000Y12644750D01*
X13954808Y12645383D01*
X14088901Y12663037D01*
X14093709Y12663670D01*
X14227625Y12719139D01*
X14342621Y12807379D01*
X14430861Y12922375D01*
X14486330Y13056291D01*
X14505250Y13200000D01*
X14486330Y13343709D01*
X14483724Y13350000D01*
X15344750Y13350000D01*
X15363670Y13206291D01*
X15419139Y13072375D01*
X15507379Y12957379D01*
X15622375Y12869139D01*
X15756291Y12813670D01*
X15900000Y12794750D01*
X15904808Y12795383D01*
X16038901Y12813037D01*
X16043709Y12813670D01*
X16177625Y12869139D01*
X16292621Y12957379D01*
X16380861Y13072375D01*
X16436330Y13206291D01*
X16442085Y13250000D01*
X18994750Y13250000D01*
X19013670Y13106291D01*
X19069139Y12972375D01*
X19157379Y12857379D01*
X19272375Y12769139D01*
X19406291Y12713670D01*
X19550000Y12694750D01*
X19554808Y12695383D01*
X19688901Y12713037D01*
X19693709Y12713670D01*
X19827625Y12769139D01*
X19942621Y12857379D01*
X20030861Y12972375D01*
X20032719Y12976860D01*
X20035142Y12981057D01*
X20036933Y12980023D01*
X20065828Y13011558D01*
X20116013Y13018168D01*
X20158706Y12990972D01*
X20164537Y12980872D01*
X20164858Y12981057D01*
X20167281Y12976860D01*
X20169139Y12972375D01*
X20257379Y12857379D01*
X20372375Y12769139D01*
X20506291Y12713670D01*
X20650000Y12694750D01*
X20654808Y12695383D01*
X20788901Y12713037D01*
X20793709Y12713670D01*
X20927625Y12769139D01*
X21042621Y12857379D01*
X21130861Y12972375D01*
X21186330Y13106291D01*
X21205250Y13250000D01*
X21186330Y13393709D01*
X21130861Y13527625D01*
X21042621Y13642621D01*
X20927625Y13730861D01*
X20793709Y13786330D01*
X20650000Y13805250D01*
X20506291Y13786330D01*
X20372375Y13730861D01*
X20257379Y13642621D01*
X20169139Y13527625D01*
X20167282Y13523141D01*
X20164858Y13518943D01*
X20163067Y13519977D01*
X20134172Y13488442D01*
X20083987Y13481832D01*
X20041294Y13509028D01*
X20035463Y13519128D01*
X20035142Y13518943D01*
X20032718Y13523141D01*
X20030861Y13527625D01*
X19942621Y13642621D01*
X19827625Y13730861D01*
X19693709Y13786330D01*
X19550000Y13805250D01*
X19406291Y13786330D01*
X19272375Y13730861D01*
X19157379Y13642621D01*
X19069139Y13527625D01*
X19013670Y13393709D01*
X18994750Y13250000D01*
X16442085Y13250000D01*
X16455250Y13350000D01*
X16436330Y13493709D01*
X16389698Y13606291D01*
X16382718Y13623143D01*
X16382716Y13623146D01*
X16380861Y13627625D01*
X16372309Y13638770D01*
X16340710Y13679952D01*
X16325488Y13728228D01*
X16340710Y13770048D01*
X16377906Y13818524D01*
X16380861Y13822375D01*
X16382716Y13826854D01*
X16382718Y13826857D01*
X16434474Y13951810D01*
X16436330Y13956291D01*
X16455250Y14100000D01*
X16436330Y14243709D01*
X16380861Y14377625D01*
X16292621Y14492621D01*
X16212472Y14554122D01*
X16540628Y14554122D01*
X16559548Y14410413D01*
X16615017Y14276497D01*
X16703257Y14161501D01*
X16818253Y14073261D01*
X16938205Y14023576D01*
X16975524Y13989380D01*
X16983253Y13945552D01*
X16979938Y13920375D01*
X16998858Y13776666D01*
X17054327Y13642750D01*
X17142567Y13527754D01*
X17257563Y13439514D01*
X17391479Y13384045D01*
X17535188Y13365125D01*
X17539996Y13365758D01*
X17674089Y13383412D01*
X17678897Y13384045D01*
X17812813Y13439514D01*
X17927809Y13527754D01*
X18016049Y13642750D01*
X18071518Y13776666D01*
X18090438Y13920375D01*
X18071518Y14064084D01*
X18016049Y14198000D01*
X17927809Y14312996D01*
X17812813Y14401236D01*
X17692861Y14450921D01*
X17655542Y14485117D01*
X17647813Y14528945D01*
X17651128Y14554122D01*
X17632208Y14697831D01*
X17576739Y14831747D01*
X17488499Y14946743D01*
X17373503Y15034983D01*
X17337248Y15050000D01*
X25744750Y15050000D01*
X25763670Y14906291D01*
X25819139Y14772375D01*
X25907379Y14657379D01*
X26022375Y14569139D01*
X26156291Y14513670D01*
X26300000Y14494750D01*
X26304808Y14495383D01*
X26438901Y14513037D01*
X26443709Y14513670D01*
X26577625Y14569139D01*
X26692621Y14657379D01*
X26780861Y14772375D01*
X26836330Y14906291D01*
X26855250Y15050000D01*
X26836330Y15193709D01*
X26780861Y15327625D01*
X26692621Y15442621D01*
X26577625Y15530861D01*
X26443709Y15586330D01*
X26300000Y15605250D01*
X26156291Y15586330D01*
X26022375Y15530861D01*
X25907379Y15442621D01*
X25819139Y15327625D01*
X25763670Y15193709D01*
X25744750Y15050000D01*
X17337248Y15050000D01*
X17239587Y15090452D01*
X17095878Y15109372D01*
X16952169Y15090452D01*
X16818253Y15034983D01*
X16703257Y14946743D01*
X16615017Y14831747D01*
X16559548Y14697831D01*
X16540628Y14554122D01*
X16212472Y14554122D01*
X16177625Y14580861D01*
X16043709Y14636330D01*
X15900000Y14655250D01*
X15756291Y14636330D01*
X15622375Y14580861D01*
X15507379Y14492621D01*
X15419139Y14377625D01*
X15363670Y14243709D01*
X15344750Y14100000D01*
X15363670Y13956291D01*
X15365526Y13951810D01*
X15417282Y13826857D01*
X15417284Y13826854D01*
X15419139Y13822375D01*
X15422094Y13818524D01*
X15459290Y13770048D01*
X15474512Y13721772D01*
X15459290Y13679952D01*
X15427691Y13638770D01*
X15419139Y13627625D01*
X15417284Y13623146D01*
X15417282Y13623143D01*
X15410302Y13606291D01*
X15363670Y13493709D01*
X15344750Y13350000D01*
X14483724Y13350000D01*
X14430861Y13477625D01*
X14342621Y13592621D01*
X14227625Y13680861D01*
X14093709Y13736330D01*
X13950000Y13755250D01*
X13806291Y13736330D01*
X13672375Y13680861D01*
X13557379Y13592621D01*
X13469139Y13477625D01*
X13413670Y13343709D01*
X13394750Y13200000D01*
X8524877Y13200000D01*
X8623901Y13213037D01*
X8628709Y13213670D01*
X8762625Y13269139D01*
X8877621Y13357379D01*
X8965861Y13472375D01*
X9021330Y13606291D01*
X9040250Y13750000D01*
X9021330Y13893709D01*
X8965861Y14027625D01*
X8877621Y14142621D01*
X8762625Y14230861D01*
X8628709Y14286330D01*
X8485000Y14305250D01*
X8341291Y14286330D01*
X8207375Y14230861D01*
X8092379Y14142621D01*
X8004139Y14027625D01*
X7948670Y13893709D01*
X7929750Y13750000D01*
X250500Y13750000D01*
X250500Y15350000D01*
X8244750Y15350000D01*
X8263670Y15206291D01*
X8319139Y15072375D01*
X8407379Y14957379D01*
X8522375Y14869139D01*
X8656291Y14813670D01*
X8800000Y14794750D01*
X8804808Y14795383D01*
X8938901Y14813037D01*
X8943709Y14813670D01*
X9077625Y14869139D01*
X9192621Y14957379D01*
X9280861Y15072375D01*
X9336330Y15206291D01*
X9355250Y15350000D01*
X9336330Y15493709D01*
X9280861Y15627625D01*
X9192621Y15742621D01*
X9077625Y15830861D01*
X8943709Y15886330D01*
X8800000Y15905250D01*
X8656291Y15886330D01*
X8522375Y15830861D01*
X8407379Y15742621D01*
X8319139Y15627625D01*
X8263670Y15493709D01*
X8244750Y15350000D01*
X250500Y15350000D01*
X250500Y16964273D01*
X267813Y17011839D01*
X311650Y17037149D01*
X361500Y17028359D01*
X372411Y17020670D01*
X465755Y16941368D01*
X621616Y16861781D01*
X791606Y16820185D01*
X802648Y16819500D01*
X1928822Y16819500D01*
X1930947Y16819748D01*
X1930951Y16819748D01*
X2054557Y16834159D01*
X2058828Y16834657D01*
X2062869Y16836124D01*
X2062870Y16836124D01*
X2219285Y16892900D01*
X2219288Y16892901D01*
X2223331Y16894369D01*
X2369685Y16990323D01*
X2436856Y17061230D01*
X2487085Y17114252D01*
X2487087Y17114255D01*
X2490040Y17117372D01*
X2496161Y17127909D01*
X2575781Y17264987D01*
X2577939Y17268702D01*
X2628667Y17436193D01*
X2630838Y17471193D01*
X2637306Y17575448D01*
X4259612Y17575448D01*
X4260044Y17571338D01*
X4260044Y17571336D01*
X4273063Y17447471D01*
X4277798Y17402419D01*
X4284208Y17383590D01*
X4324319Y17265767D01*
X4333867Y17237719D01*
X4425031Y17089533D01*
X4461451Y17052342D01*
X4536946Y16975250D01*
X4546760Y16965228D01*
X4550239Y16962986D01*
X4689526Y16873221D01*
X4689529Y16873220D01*
X4693004Y16870980D01*
X4696889Y16869566D01*
X4696893Y16869564D01*
X4774640Y16841267D01*
X4851063Y16813452D01*
X4889839Y16780915D01*
X4898629Y16731065D01*
X4873319Y16687228D01*
X4854072Y16675548D01*
X4814471Y16659144D01*
X4774767Y16642698D01*
X4654549Y16550451D01*
X4562302Y16430233D01*
X4504313Y16290236D01*
X4503681Y16285434D01*
X4503680Y16285431D01*
X4486985Y16158617D01*
X4484534Y16140000D01*
X4485167Y16135192D01*
X4500527Y16018525D01*
X4504313Y15989764D01*
X4562302Y15849767D01*
X4654549Y15729549D01*
X4774767Y15637302D01*
X4914764Y15579313D01*
X4919566Y15578681D01*
X4919569Y15578680D01*
X5002180Y15567805D01*
X5027280Y15564500D01*
X5102720Y15564500D01*
X5127820Y15567805D01*
X5210431Y15578680D01*
X5210434Y15578681D01*
X5215236Y15579313D01*
X5355233Y15637302D01*
X5475451Y15729549D01*
X5567698Y15849767D01*
X5625687Y15989764D01*
X5629474Y16018525D01*
X5644833Y16135192D01*
X5645466Y16140000D01*
X5643015Y16158617D01*
X5637567Y16200000D01*
X15694750Y16200000D01*
X15713670Y16056291D01*
X15769139Y15922375D01*
X15857379Y15807379D01*
X15972375Y15719139D01*
X16106291Y15663670D01*
X16250000Y15644750D01*
X16254808Y15645383D01*
X16388901Y15663037D01*
X16393709Y15663670D01*
X16527625Y15719139D01*
X16642621Y15807379D01*
X16730861Y15922375D01*
X16786330Y16056291D01*
X16805250Y16200000D01*
X16786330Y16343709D01*
X16730861Y16477625D01*
X16642621Y16592621D01*
X16527625Y16680861D01*
X16393709Y16736330D01*
X16250000Y16755250D01*
X16106291Y16736330D01*
X15972375Y16680861D01*
X15857379Y16592621D01*
X15769139Y16477625D01*
X15713670Y16343709D01*
X15694750Y16200000D01*
X5637567Y16200000D01*
X5626320Y16285431D01*
X5626319Y16285434D01*
X5625687Y16290236D01*
X5567698Y16430233D01*
X5475451Y16550451D01*
X5355233Y16642698D01*
X5332455Y16652133D01*
X5295135Y16686331D01*
X5288528Y16736517D01*
X5315726Y16779208D01*
X5360774Y16794500D01*
X6133746Y16794500D01*
X6262898Y16808987D01*
X6266802Y16810347D01*
X6266804Y16810347D01*
X6335182Y16834159D01*
X6427203Y16866204D01*
X6446193Y16878070D01*
X6571239Y16956207D01*
X6571241Y16956209D01*
X6574748Y16958400D01*
X6698201Y17080994D01*
X6723644Y17121085D01*
X6789207Y17224397D01*
X6791425Y17227892D01*
X6849788Y17391793D01*
X6856729Y17450000D01*
X25744750Y17450000D01*
X25763670Y17306291D01*
X25819139Y17172375D01*
X25907379Y17057379D01*
X26022375Y16969139D01*
X26156291Y16913670D01*
X26161099Y16913037D01*
X26300000Y16894750D01*
X26299857Y16893663D01*
X26342696Y16878070D01*
X26368006Y16834233D01*
X26366609Y16802231D01*
X26365527Y16798192D01*
X26363670Y16793709D01*
X26344750Y16650000D01*
X26363670Y16506291D01*
X26419139Y16372375D01*
X26507379Y16257379D01*
X26622375Y16169139D01*
X26756291Y16113670D01*
X26900000Y16094750D01*
X26904808Y16095383D01*
X27038901Y16113037D01*
X27043709Y16113670D01*
X27177625Y16169139D01*
X27279953Y16247659D01*
X27328228Y16262880D01*
X27370046Y16247659D01*
X27472375Y16169139D01*
X27606291Y16113670D01*
X27750000Y16094750D01*
X27834432Y16105866D01*
X27883850Y16094910D01*
X27912518Y16055814D01*
X27913670Y16056291D01*
X27969139Y15922375D01*
X28057379Y15807379D01*
X28172375Y15719139D01*
X28306291Y15663670D01*
X28450000Y15644750D01*
X28454808Y15645383D01*
X28588901Y15663037D01*
X28593709Y15663670D01*
X28727625Y15719139D01*
X28842621Y15807379D01*
X28930861Y15922375D01*
X28986330Y16056291D01*
X29005250Y16200000D01*
X28992085Y16300000D01*
X31244750Y16300000D01*
X31263670Y16156291D01*
X31319139Y16022375D01*
X31407379Y15907379D01*
X31522375Y15819139D01*
X31656291Y15763670D01*
X31800000Y15744750D01*
X31804808Y15745383D01*
X31938901Y15763037D01*
X31943709Y15763670D01*
X32077625Y15819139D01*
X32192621Y15907379D01*
X32280861Y16022375D01*
X32336330Y16156291D01*
X32355250Y16300000D01*
X32336330Y16443709D01*
X32280861Y16577625D01*
X32192621Y16692621D01*
X32077625Y16780861D01*
X31943709Y16836330D01*
X31800000Y16855250D01*
X31656291Y16836330D01*
X31522375Y16780861D01*
X31407379Y16692621D01*
X31319139Y16577625D01*
X31263670Y16443709D01*
X31244750Y16300000D01*
X28992085Y16300000D01*
X28986330Y16343709D01*
X28930861Y16477625D01*
X28842621Y16592621D01*
X28727625Y16680861D01*
X28593709Y16736330D01*
X28450000Y16755250D01*
X28365568Y16744134D01*
X28316150Y16755090D01*
X28287482Y16794186D01*
X28286330Y16793709D01*
X28264688Y16845958D01*
X28230861Y16927625D01*
X28142621Y17042621D01*
X28027625Y17130861D01*
X27893709Y17186330D01*
X27750000Y17205250D01*
X27606291Y17186330D01*
X27472375Y17130861D01*
X27370047Y17052341D01*
X27321772Y17037120D01*
X27279954Y17052341D01*
X27177625Y17130861D01*
X27043709Y17186330D01*
X26900000Y17205250D01*
X26900143Y17206337D01*
X26857304Y17221930D01*
X26831994Y17265767D01*
X26833391Y17297769D01*
X26834474Y17301810D01*
X26836330Y17306291D01*
X26855250Y17450000D01*
X33244750Y17450000D01*
X33263670Y17306291D01*
X33319139Y17172375D01*
X33407379Y17057379D01*
X33522375Y16969139D01*
X33656291Y16913670D01*
X33800000Y16894750D01*
X33804808Y16895383D01*
X33806694Y16895383D01*
X33854260Y16878070D01*
X33879570Y16834233D01*
X33870780Y16784383D01*
X33835012Y16753016D01*
X33722375Y16706361D01*
X33607379Y16618121D01*
X33519139Y16503125D01*
X33463670Y16369209D01*
X33444750Y16225500D01*
X33463670Y16081791D01*
X33519139Y15947875D01*
X33607379Y15832879D01*
X33722375Y15744639D01*
X33856291Y15689170D01*
X34000000Y15670250D01*
X34004808Y15670883D01*
X34138901Y15688537D01*
X34143709Y15689170D01*
X34277625Y15744639D01*
X34392621Y15832879D01*
X34480861Y15947875D01*
X34481116Y15948490D01*
X34518667Y15979999D01*
X34569286Y15979999D01*
X34608063Y15947462D01*
X34612344Y15938781D01*
X34619139Y15922375D01*
X34707379Y15807379D01*
X34822375Y15719139D01*
X34956291Y15663670D01*
X35100000Y15644750D01*
X35104808Y15645383D01*
X35238901Y15663037D01*
X35243709Y15663670D01*
X35377625Y15719139D01*
X35492621Y15807379D01*
X35580861Y15922375D01*
X35636330Y16056291D01*
X35655250Y16200000D01*
X35636330Y16343709D01*
X35580861Y16477625D01*
X35492621Y16592621D01*
X35377625Y16680861D01*
X35243709Y16736330D01*
X35100000Y16755250D01*
X34956291Y16736330D01*
X34822375Y16680861D01*
X34707379Y16592621D01*
X34619139Y16477625D01*
X34618884Y16477010D01*
X34581333Y16445501D01*
X34530714Y16445501D01*
X34491937Y16478038D01*
X34487656Y16486720D01*
X34482718Y16498641D01*
X34480861Y16503125D01*
X34392621Y16618121D01*
X34277625Y16706361D01*
X34143709Y16761830D01*
X34000000Y16780750D01*
X33995192Y16780117D01*
X33993306Y16780117D01*
X33945740Y16797430D01*
X33920430Y16841267D01*
X33929220Y16891117D01*
X33964988Y16922484D01*
X33977400Y16927625D01*
X34077625Y16969139D01*
X34192621Y17057379D01*
X34280861Y17172375D01*
X34336330Y17306291D01*
X34355250Y17450000D01*
X36444750Y17450000D01*
X36463670Y17306291D01*
X36519139Y17172375D01*
X36607379Y17057379D01*
X36722375Y16969139D01*
X36856291Y16913670D01*
X37000000Y16894750D01*
X37004808Y16895383D01*
X37138901Y16913037D01*
X37143709Y16913670D01*
X37277625Y16969139D01*
X37392621Y17057379D01*
X37480861Y17172375D01*
X37536330Y17306291D01*
X37550364Y17412885D01*
X37570568Y17451697D01*
X37554222Y17471193D01*
X37550403Y17486814D01*
X37539276Y17571336D01*
X37536330Y17593709D01*
X37480861Y17727625D01*
X37392621Y17842621D01*
X37277625Y17930861D01*
X37143709Y17986330D01*
X37027473Y18001633D01*
X36999765Y18016057D01*
X36978884Y18002754D01*
X36972528Y18001633D01*
X36856291Y17986330D01*
X36722375Y17930861D01*
X36607379Y17842621D01*
X36519139Y17727625D01*
X36463670Y17593709D01*
X36444750Y17450000D01*
X34355250Y17450000D01*
X34336330Y17593709D01*
X34280861Y17727625D01*
X34192621Y17842621D01*
X34077625Y17930861D01*
X33943709Y17986330D01*
X33800000Y18005250D01*
X33656291Y17986330D01*
X33522375Y17930861D01*
X33407379Y17842621D01*
X33319139Y17727625D01*
X33263670Y17593709D01*
X33244750Y17450000D01*
X26855250Y17450000D01*
X26836330Y17593709D01*
X26780861Y17727625D01*
X26692621Y17842621D01*
X26577625Y17930861D01*
X26443709Y17986330D01*
X26300000Y18005250D01*
X26156291Y17986330D01*
X26022375Y17930861D01*
X25907379Y17842621D01*
X25819139Y17727625D01*
X25763670Y17593709D01*
X25744750Y17450000D01*
X6856729Y17450000D01*
X6870388Y17564552D01*
X6868596Y17581608D01*
X6852634Y17733472D01*
X6852634Y17733473D01*
X6852202Y17737581D01*
X6796133Y17902281D01*
X6704969Y18050467D01*
X6605506Y18152035D01*
X6586135Y18171816D01*
X6586134Y18171817D01*
X6583240Y18174772D01*
X6546217Y18198632D01*
X6440474Y18266779D01*
X6440471Y18266780D01*
X6436996Y18269020D01*
X6429891Y18271606D01*
X6277396Y18327110D01*
X6277392Y18327111D01*
X6273507Y18328525D01*
X6269403Y18329043D01*
X6269401Y18329044D01*
X6205965Y18337058D01*
X6139137Y18345500D01*
X4996254Y18345500D01*
X4867102Y18331013D01*
X4863198Y18329653D01*
X4863196Y18329653D01*
X4832694Y18319031D01*
X4702797Y18273796D01*
X4699293Y18271607D01*
X4699292Y18271606D01*
X4558761Y18183793D01*
X4558759Y18183791D01*
X4555252Y18181600D01*
X4431799Y18059006D01*
X4429580Y18055509D01*
X4429579Y18055508D01*
X4395389Y18001633D01*
X4338575Y17912108D01*
X4280212Y17748207D01*
X4259612Y17575448D01*
X2637306Y17575448D01*
X2639237Y17606568D01*
X2639237Y17606571D01*
X2639503Y17610862D01*
X2609866Y17783340D01*
X2541346Y17944373D01*
X2510469Y17986330D01*
X2440163Y18081865D01*
X2440161Y18081867D01*
X2437617Y18085324D01*
X2304245Y18198632D01*
X2148384Y18278219D01*
X1978394Y18319815D01*
X1967352Y18320500D01*
X841178Y18320500D01*
X839053Y18320252D01*
X839049Y18320252D01*
X728635Y18307379D01*
X711172Y18305343D01*
X707131Y18303876D01*
X707130Y18303876D01*
X550715Y18247100D01*
X550712Y18247099D01*
X546669Y18245631D01*
X400315Y18149677D01*
X397356Y18146553D01*
X378222Y18126355D01*
X332941Y18103729D01*
X283711Y18115503D01*
X253566Y18156167D01*
X250500Y18177246D01*
X250500Y18700000D01*
X36444750Y18700000D01*
X36463670Y18556291D01*
X36519139Y18422375D01*
X36607379Y18307379D01*
X36722375Y18219139D01*
X36807709Y18183793D01*
X36836625Y18171816D01*
X36856291Y18163670D01*
X36962577Y18149677D01*
X36972527Y18148367D01*
X37000235Y18133943D01*
X37021116Y18147246D01*
X37027473Y18148367D01*
X37037424Y18149677D01*
X37143709Y18163670D01*
X37163376Y18171816D01*
X37192291Y18183793D01*
X37277625Y18219139D01*
X37392621Y18307379D01*
X37480861Y18422375D01*
X37536330Y18556291D01*
X37536963Y18561099D01*
X37550899Y18666950D01*
X37568499Y18700758D01*
X37554754Y18717153D01*
X37550935Y18732774D01*
X37536963Y18838901D01*
X37536330Y18843709D01*
X37480861Y18977625D01*
X37392621Y19092621D01*
X37277625Y19180861D01*
X37143709Y19236330D01*
X37000000Y19255250D01*
X36856291Y19236330D01*
X36722375Y19180861D01*
X36607379Y19092621D01*
X36519139Y18977625D01*
X36463670Y18843709D01*
X36444750Y18700000D01*
X250500Y18700000D01*
X250500Y19600000D01*
X14294750Y19600000D01*
X14313670Y19456291D01*
X14369139Y19322375D01*
X14457379Y19207379D01*
X14572375Y19119139D01*
X14706291Y19063670D01*
X14850000Y19044750D01*
X14854808Y19045383D01*
X14988901Y19063037D01*
X14993709Y19063670D01*
X15127625Y19119139D01*
X15176376Y19156547D01*
X15224652Y19171769D01*
X15271418Y19152398D01*
X15280132Y19142887D01*
X15304423Y19111230D01*
X15304427Y19111226D01*
X15307379Y19107379D01*
X15422375Y19019139D01*
X15556291Y18963670D01*
X15700000Y18944750D01*
X15704808Y18945383D01*
X15838901Y18963037D01*
X15843709Y18963670D01*
X15977625Y19019139D01*
X16092621Y19107379D01*
X16180861Y19222375D01*
X16236330Y19356291D01*
X16255250Y19500000D01*
X16236330Y19643709D01*
X16180861Y19777625D01*
X16092621Y19892621D01*
X16017844Y19950000D01*
X33344750Y19950000D01*
X33363670Y19806291D01*
X33419139Y19672375D01*
X33507379Y19557379D01*
X33622375Y19469139D01*
X33756291Y19413670D01*
X33900000Y19394750D01*
X33904808Y19395383D01*
X34038901Y19413037D01*
X34043709Y19413670D01*
X34177625Y19469139D01*
X34292621Y19557379D01*
X34380861Y19672375D01*
X34436330Y19806291D01*
X34455250Y19950000D01*
X34436330Y20093709D01*
X34380861Y20227625D01*
X34292621Y20342621D01*
X34177625Y20430861D01*
X34043709Y20486330D01*
X33900000Y20505250D01*
X33756291Y20486330D01*
X33622375Y20430861D01*
X33507379Y20342621D01*
X33419139Y20227625D01*
X33363670Y20093709D01*
X33344750Y19950000D01*
X16017844Y19950000D01*
X15977625Y19980861D01*
X15843709Y20036330D01*
X15700000Y20055250D01*
X15556291Y20036330D01*
X15422375Y19980861D01*
X15391426Y19957113D01*
X15373624Y19943453D01*
X15325348Y19928231D01*
X15278582Y19947602D01*
X15269868Y19957113D01*
X15245577Y19988770D01*
X15245573Y19988774D01*
X15242621Y19992621D01*
X15127625Y20080861D01*
X14993709Y20136330D01*
X14850000Y20155250D01*
X14706291Y20136330D01*
X14572375Y20080861D01*
X14457379Y19992621D01*
X14369139Y19877625D01*
X14313670Y19743709D01*
X14294750Y19600000D01*
X250500Y19600000D01*
X250500Y23042834D01*
X595958Y23042834D01*
X604865Y22702690D01*
X652809Y22365824D01*
X739152Y22036700D01*
X862753Y21719682D01*
X1021971Y21418971D01*
X1023175Y21417219D01*
X1023180Y21417211D01*
X1068129Y21351810D01*
X1214697Y21138553D01*
X1216092Y21136954D01*
X1399403Y20926821D01*
X1438376Y20882145D01*
X1521739Y20806291D01*
X1684655Y20658049D01*
X1690044Y20653145D01*
X1691771Y20651904D01*
X1691776Y20651900D01*
X1964628Y20455836D01*
X1964633Y20455833D01*
X1966364Y20454589D01*
X2263674Y20289108D01*
X2265649Y20288290D01*
X2265653Y20288288D01*
X2402813Y20231475D01*
X2578035Y20158896D01*
X2767348Y20104969D01*
X2903223Y20066263D01*
X2903229Y20066262D01*
X2905278Y20065678D01*
X2907387Y20065333D01*
X2907390Y20065332D01*
X3238963Y20011035D01*
X3238969Y20011034D01*
X3241066Y20010691D01*
X3394472Y20003456D01*
X3578823Y19994762D01*
X3578828Y19994762D01*
X3580949Y19994662D01*
X3920422Y20017805D01*
X3922506Y20018191D01*
X3922512Y20018192D01*
X4252884Y20079423D01*
X4252891Y20079425D01*
X4254986Y20079813D01*
X4580205Y20179863D01*
X4891769Y20316630D01*
X4893612Y20317707D01*
X4893618Y20317710D01*
X5183708Y20487225D01*
X5183711Y20487227D01*
X5185549Y20488301D01*
X5277552Y20557379D01*
X5455947Y20691322D01*
X5455951Y20691325D01*
X5457650Y20692601D01*
X5704467Y20926821D01*
X5844007Y21093709D01*
X5921354Y21186214D01*
X5921360Y21186222D01*
X5922727Y21187857D01*
X5948347Y21226859D01*
X6033367Y21356291D01*
X6109538Y21472250D01*
X6123495Y21500000D01*
X25794750Y21500000D01*
X25813670Y21356291D01*
X25869139Y21222375D01*
X25957379Y21107379D01*
X26072375Y21019139D01*
X26206291Y20963670D01*
X26350000Y20944750D01*
X26354808Y20945383D01*
X26488901Y20963037D01*
X26493709Y20963670D01*
X26627625Y21019139D01*
X26742621Y21107379D01*
X26830861Y21222375D01*
X26886330Y21356291D01*
X26905250Y21500000D01*
X26886330Y21643709D01*
X26830861Y21777625D01*
X26742621Y21892621D01*
X26627625Y21980861D01*
X26581419Y22000000D01*
X36444750Y22000000D01*
X36463670Y21856291D01*
X36519139Y21722375D01*
X36607379Y21607379D01*
X36722375Y21519139D01*
X36856291Y21463670D01*
X37000000Y21444750D01*
X37004808Y21445383D01*
X37138901Y21463037D01*
X37143709Y21463670D01*
X37277625Y21519139D01*
X37392621Y21607379D01*
X37480861Y21722375D01*
X37536330Y21856291D01*
X37555250Y22000000D01*
X37536330Y22143709D01*
X37480861Y22277625D01*
X37392621Y22392621D01*
X37277625Y22480861D01*
X37143709Y22536330D01*
X37000000Y22555250D01*
X36856291Y22536330D01*
X36722375Y22480861D01*
X36607379Y22392621D01*
X36519139Y22277625D01*
X36463670Y22143709D01*
X36444750Y22000000D01*
X26581419Y22000000D01*
X26493709Y22036330D01*
X26350000Y22055250D01*
X26206291Y22036330D01*
X26072375Y21980861D01*
X25957379Y21892621D01*
X25869139Y21777625D01*
X25813670Y21643709D01*
X25794750Y21500000D01*
X6123495Y21500000D01*
X6262424Y21776229D01*
X6379358Y22095767D01*
X6458790Y22426626D01*
X6497923Y22750000D01*
X29144750Y22750000D01*
X29163670Y22606291D01*
X29219139Y22472375D01*
X29307379Y22357379D01*
X29422375Y22269139D01*
X29556291Y22213670D01*
X29700000Y22194750D01*
X29704808Y22195383D01*
X29838901Y22213037D01*
X29843709Y22213670D01*
X29977625Y22269139D01*
X30092621Y22357379D01*
X30180861Y22472375D01*
X30236330Y22606291D01*
X30255250Y22750000D01*
X30236330Y22893709D01*
X30180861Y23027625D01*
X30092621Y23142621D01*
X29977625Y23230861D01*
X29843709Y23286330D01*
X29700000Y23305250D01*
X29556291Y23286330D01*
X29422375Y23230861D01*
X29307379Y23142621D01*
X29219139Y23027625D01*
X29163670Y22893709D01*
X29144750Y22750000D01*
X6497923Y22750000D01*
X6499668Y22764423D01*
X6503872Y22898190D01*
X6505448Y22948337D01*
X6505448Y22948343D01*
X6505500Y22950000D01*
X6485913Y23289697D01*
X6427412Y23624891D01*
X6419974Y23650000D01*
X18894750Y23650000D01*
X18913670Y23506291D01*
X18969139Y23372375D01*
X19057379Y23257379D01*
X19172375Y23169139D01*
X19306291Y23113670D01*
X19450000Y23094750D01*
X19454808Y23095383D01*
X19588901Y23113037D01*
X19593709Y23113670D01*
X19727625Y23169139D01*
X19760551Y23194404D01*
X19808827Y23209626D01*
X19855593Y23190255D01*
X19868282Y23174444D01*
X19869139Y23172375D01*
X19872089Y23168531D01*
X19872091Y23168527D01*
X19891970Y23142621D01*
X19957379Y23057379D01*
X20072375Y22969139D01*
X20206291Y22913670D01*
X20350000Y22894750D01*
X20354808Y22895383D01*
X20488901Y22913037D01*
X20493709Y22913670D01*
X20627625Y22969139D01*
X20742621Y23057379D01*
X20830861Y23172375D01*
X20886330Y23306291D01*
X20905250Y23450000D01*
X21194750Y23450000D01*
X21213670Y23306291D01*
X21269139Y23172375D01*
X21357379Y23057379D01*
X21472375Y22969139D01*
X21606291Y22913670D01*
X21750000Y22894750D01*
X21754808Y22895383D01*
X21888901Y22913037D01*
X21893709Y22913670D01*
X22027625Y22969139D01*
X22129953Y23047659D01*
X22178228Y23062880D01*
X22220046Y23047659D01*
X22322375Y22969139D01*
X22456291Y22913670D01*
X22600000Y22894750D01*
X22604808Y22895383D01*
X22738901Y22913037D01*
X22743709Y22913670D01*
X22877625Y22969139D01*
X22992621Y23057379D01*
X23080861Y23172375D01*
X23136330Y23306291D01*
X23155250Y23450000D01*
X24944750Y23450000D01*
X24963670Y23306291D01*
X25019139Y23172375D01*
X25107379Y23057379D01*
X25222375Y22969139D01*
X25356291Y22913670D01*
X25500000Y22894750D01*
X25504808Y22895383D01*
X25638901Y22913037D01*
X25643709Y22913670D01*
X25777625Y22969139D01*
X25892621Y23057379D01*
X25980861Y23172375D01*
X26036330Y23306291D01*
X26055250Y23450000D01*
X26036330Y23593709D01*
X26014721Y23645878D01*
X34648872Y23645878D01*
X34667792Y23502169D01*
X34723261Y23368253D01*
X34811501Y23253257D01*
X34926497Y23165017D01*
X35060413Y23109548D01*
X35204122Y23090628D01*
X35208930Y23091261D01*
X35343023Y23108915D01*
X35347831Y23109548D01*
X35481747Y23165017D01*
X35596743Y23253257D01*
X35684983Y23368253D01*
X35740452Y23502169D01*
X35759372Y23645878D01*
X35740452Y23789587D01*
X35684983Y23923503D01*
X35596743Y24038499D01*
X35481747Y24126739D01*
X35347831Y24182208D01*
X35204122Y24201128D01*
X35060413Y24182208D01*
X34926497Y24126739D01*
X34811501Y24038499D01*
X34723261Y23923503D01*
X34667792Y23789587D01*
X34648872Y23645878D01*
X26014721Y23645878D01*
X25980861Y23727625D01*
X25892621Y23842621D01*
X25777625Y23930861D01*
X25643709Y23986330D01*
X25500000Y24005250D01*
X25356291Y23986330D01*
X25222375Y23930861D01*
X25107379Y23842621D01*
X25019139Y23727625D01*
X24963670Y23593709D01*
X24944750Y23450000D01*
X23155250Y23450000D01*
X23136330Y23593709D01*
X23080861Y23727625D01*
X22992621Y23842621D01*
X22877625Y23930861D01*
X22743709Y23986330D01*
X22600000Y24005250D01*
X22456291Y23986330D01*
X22322375Y23930861D01*
X22220047Y23852341D01*
X22171772Y23837120D01*
X22129954Y23852341D01*
X22027625Y23930861D01*
X21893709Y23986330D01*
X21750000Y24005250D01*
X21606291Y23986330D01*
X21472375Y23930861D01*
X21357379Y23842621D01*
X21269139Y23727625D01*
X21213670Y23593709D01*
X21194750Y23450000D01*
X20905250Y23450000D01*
X20886330Y23593709D01*
X20830861Y23727625D01*
X20742621Y23842621D01*
X20627625Y23930861D01*
X20493709Y23986330D01*
X20350000Y24005250D01*
X20206291Y23986330D01*
X20072375Y23930861D01*
X20044856Y23909745D01*
X20039449Y23905596D01*
X19991173Y23890374D01*
X19944407Y23909745D01*
X19931718Y23925556D01*
X19930861Y23927625D01*
X19927911Y23931469D01*
X19927909Y23931473D01*
X19845576Y24038770D01*
X19842621Y24042621D01*
X19727625Y24130861D01*
X19593709Y24186330D01*
X19450000Y24205250D01*
X19306291Y24186330D01*
X19172375Y24130861D01*
X19057379Y24042621D01*
X18969139Y23927625D01*
X18913670Y23793709D01*
X18894750Y23650000D01*
X6419974Y23650000D01*
X6330773Y23951140D01*
X6197276Y24264119D01*
X6091252Y24450000D01*
X14894750Y24450000D01*
X14913670Y24306291D01*
X14969139Y24172375D01*
X15057379Y24057379D01*
X15172375Y23969139D01*
X15306291Y23913670D01*
X15450000Y23894750D01*
X15454808Y23895383D01*
X15588901Y23913037D01*
X15593709Y23913670D01*
X15727625Y23969139D01*
X15842621Y24057379D01*
X15930861Y24172375D01*
X15986330Y24306291D01*
X16005250Y24450000D01*
X15986330Y24593709D01*
X15930861Y24727625D01*
X15842621Y24842621D01*
X15727625Y24930861D01*
X15593709Y24986330D01*
X15450000Y25005250D01*
X15306291Y24986330D01*
X15172375Y24930861D01*
X15057379Y24842621D01*
X14969139Y24727625D01*
X14913670Y24593709D01*
X14894750Y24450000D01*
X6091252Y24450000D01*
X6028691Y24559681D01*
X5827252Y24833907D01*
X5719164Y24950223D01*
X5597085Y25081596D01*
X5597078Y25081603D01*
X5595629Y25083162D01*
X5341745Y25300000D01*
X25844750Y25300000D01*
X25863670Y25156291D01*
X25865526Y25151810D01*
X25870514Y25139767D01*
X25919139Y25022375D01*
X26007379Y24907379D01*
X26122375Y24819139D01*
X26256291Y24763670D01*
X26400000Y24744750D01*
X26404808Y24745383D01*
X26538901Y24763037D01*
X26543709Y24763670D01*
X26677625Y24819139D01*
X26792621Y24907379D01*
X26880861Y25022375D01*
X26929486Y25139767D01*
X26934474Y25151810D01*
X26936330Y25156291D01*
X26955250Y25300000D01*
X26936330Y25443709D01*
X26880861Y25577625D01*
X26792621Y25692621D01*
X26677625Y25780861D01*
X26543709Y25836330D01*
X26400000Y25855250D01*
X26256291Y25836330D01*
X26122375Y25780861D01*
X26007379Y25692621D01*
X25919139Y25577625D01*
X25863670Y25443709D01*
X25844750Y25300000D01*
X5341745Y25300000D01*
X5336893Y25304144D01*
X5335127Y25305331D01*
X5335120Y25305336D01*
X5056243Y25492733D01*
X5056242Y25492733D01*
X5054472Y25493923D01*
X5052584Y25494898D01*
X5052578Y25494901D01*
X4883900Y25581962D01*
X4752110Y25649984D01*
X4433815Y25770257D01*
X4178157Y25834474D01*
X4105864Y25852633D01*
X4105861Y25852634D01*
X4103805Y25853150D01*
X4101702Y25853427D01*
X4101696Y25853428D01*
X3768563Y25897286D01*
X3768554Y25897287D01*
X3766455Y25897563D01*
X3611905Y25899991D01*
X3428367Y25902875D01*
X3428359Y25902875D01*
X3426237Y25902908D01*
X3087658Y25869113D01*
X2755207Y25796627D01*
X2753199Y25795940D01*
X2753190Y25795937D01*
X2553668Y25727625D01*
X2433292Y25686411D01*
X2431356Y25685488D01*
X2431357Y25685488D01*
X2128096Y25540840D01*
X2128087Y25540835D01*
X2126177Y25539924D01*
X2124380Y25538797D01*
X2124375Y25538794D01*
X1839749Y25360249D01*
X1839744Y25360245D01*
X1837934Y25359110D01*
X1572384Y25146365D01*
X1570895Y25144860D01*
X1570888Y25144854D01*
X1378286Y24950223D01*
X1333047Y24904507D01*
X1331736Y24902835D01*
X1197373Y24731475D01*
X1123094Y24636744D01*
X1121981Y24634927D01*
X946425Y24348448D01*
X946420Y24348438D01*
X945308Y24346624D01*
X944411Y24344692D01*
X944408Y24344686D01*
X843241Y24126739D01*
X802046Y24037992D01*
X801377Y24035969D01*
X801375Y24035964D01*
X719893Y23789587D01*
X695206Y23714940D01*
X626206Y23381748D01*
X626017Y23379626D01*
X626016Y23379622D01*
X612905Y23232718D01*
X595958Y23042834D01*
X250500Y23042834D01*
X250500Y26175500D01*
X267813Y26223066D01*
X311650Y26248376D01*
X324500Y26249500D01*
X18867452Y26249500D01*
X18915018Y26232187D01*
G37*
%TD.AperFunction*%
%TD*%
M02*
